SplineFontDB: 3.2
FontName: YourFontName
FullName: Your Full Font Name
FamilyName: Your Family Name
Weight: Regular
Copyright: Copyright (c) 2024, 
UComments: "2024-8-19: Created with FontForge (http://fontforge.org)"
Version: 001.000
ItalicAngle: 0
UnderlinePosition: -100
UnderlineWidth: 50
Ascent: 800
Descent: 200
InvalidEm: 0
LayerCount: 2
Layer: 0 0 "Back" 1
Layer: 1 0 "Fore" 0
XUID: [1021 614 -801222002 13578015]
OS2Version: 0
OS2_WeightWidthSlopeOnly: 0
OS2_UseTypoMetrics: 1
CreationTime: 1724059218
ModificationTime: 1724059220
OS2TypoAscent: 0
OS2TypoAOffset: 1
OS2TypoDescent: 0
OS2TypoDOffset: 1
OS2TypoLinegap: 0
OS2WinAscent: 0
OS2WinAOffset: 1
OS2WinDescent: 0
OS2WinDOffset: 1
HheadAscent: 0
HheadAOffset: 1
HheadDescent: 0
HheadDOffset: 1
OS2Vendor: 'PfEd'
DEI: 91125
Encoding: ISO8859-1
UnicodeInterp: none
NameList: AGL For New Fonts
DisplaySize: -48
AntiAlias: 1
FitToEm: 0
BeginChars: 256 56

StartChar: a
Encoding: 97 97 0
Width: 499
VWidth: 600
Flags: HW
LayerCount: 2
Back
Fore
SplineSet
138.556640625 361.111328125 m 1
 138.556640625 388.888671875 l 1
 249.666992188 388.888671875 l 1
 360.778320312 388.888671875 l 1
 360.778320312 361.111328125 l 1
 360.778320312 333.333984375 l 1
 388.556640625 333.333984375 l 1
 416.333984375 333.333984375 l 1
 416.333984375 166.666015625 l 1
 416.333984375 0 l 1
 277.4453125 0 l 1
 138.556640625 0 l 1
 138.556640625 27.77734375 l 1
 138.556640625 55.5556640625 l 1
 110.778320312 55.5556640625 l 1
 83 55.5556640625 l 1
 83 111.111328125 l 1
 83 166.666015625 l 1
 110.778320312 166.666015625 l 1
 138.556640625 166.666015625 l 1
 138.556640625 194.444335938 l 1
 138.556640625 222.22265625 l 1
 249.666992188 222.22265625 l 1
 360.778320312 222.22265625 l 1
 360.778320312 277.77734375 l 1
 360.778320312 333.333984375 l 1
 249.666992188 333.333984375 l 1
 138.556640625 333.333984375 l 1
 138.556640625 361.111328125 l 1
360.778320312 111.111328125 m 1
 360.778320312 166.666015625 l 1
 249.666992188 166.666015625 l 1
 138.556640625 166.666015625 l 1
 138.556640625 111.111328125 l 1
 138.556640625 55.5556640625 l 1
 249.666992188 55.5556640625 l 1
 360.778320312 55.5556640625 l 1
 360.778320312 111.111328125 l 1
EndSplineSet
EndChar

StartChar: b
Encoding: 98 98 1
Width: 499
VWidth: 600
Flags: HW
LayerCount: 2
Back
Fore
SplineSet
83 250 m 1
 83 500 l 1
 110.778320312 500 l 1
 138.556640625 500 l 1
 138.556640625 416.666015625 l 1
 138.556640625 333.333984375 l 1
 166.333984375 333.333984375 l 1
 194.111328125 333.333984375 l 1
 194.111328125 361.111328125 l 1
 194.111328125 388.888671875 l 1
 277.4453125 388.888671875 l 1
 360.778320312 388.888671875 l 1
 360.778320312 361.111328125 l 1
 360.778320312 333.333984375 l 1
 388.556640625 333.333984375 l 1
 416.333984375 333.333984375 l 1
 416.333984375 194.444335938 l 1
 416.333984375 55.5556640625 l 1
 388.556640625 55.5556640625 l 1
 360.778320312 55.5556640625 l 1
 360.778320312 27.77734375 l 1
 360.778320312 0 l 1
 277.4453125 0 l 1
 194.111328125 0 l 1
 194.111328125 27.77734375 l 1
 194.111328125 55.5556640625 l 1
 166.333984375 55.5556640625 l 1
 138.556640625 55.5556640625 l 1
 138.556640625 27.77734375 l 1
 138.556640625 0 l 1
 110.778320312 0 l 1
 83 0 l 1
 83 250 l 1
360.778320312 194.444335938 m 1
 360.778320312 333.333984375 l 1
 277.4453125 333.333984375 l 1
 194.111328125 333.333984375 l 1
 194.111328125 305.555664062 l 1
 194.111328125 277.77734375 l 1
 166.333984375 277.77734375 l 1
 138.556640625 277.77734375 l 1
 138.556640625 194.444335938 l 1
 138.556640625 111.111328125 l 1
 166.333984375 111.111328125 l 1
 194.111328125 111.111328125 l 1
 194.111328125 83.333984375 l 1
 194.111328125 55.5556640625 l 1
 277.4453125 55.5556640625 l 1
 360.778320312 55.5556640625 l 1
 360.778320312 194.444335938 l 1
EndSplineSet
EndChar

StartChar: c
Encoding: 99 99 2
Width: 499
VWidth: 600
Flags: HW
LayerCount: 2
Back
Fore
SplineSet
138.556640625 361.111328125 m 1
 138.556640625 388.888671875 l 1
 249.666992188 388.888671875 l 1
 360.778320312 388.888671875 l 1
 360.778320312 361.111328125 l 1
 360.778320312 333.333984375 l 1
 388.556640625 333.333984375 l 1
 416.333984375 333.333984375 l 1
 416.333984375 305.555664062 l 1
 416.333984375 277.77734375 l 1
 388.556640625 277.77734375 l 1
 360.778320312 277.77734375 l 1
 360.778320312 305.555664062 l 1
 360.778320312 333.333984375 l 1
 249.666992188 333.333984375 l 1
 138.556640625 333.333984375 l 1
 138.556640625 194.444335938 l 1
 138.556640625 55.5556640625 l 1
 249.666992188 55.5556640625 l 1
 360.778320312 55.5556640625 l 1
 360.778320312 83.333984375 l 1
 360.778320312 111.111328125 l 1
 388.556640625 111.111328125 l 1
 416.333984375 111.111328125 l 1
 416.333984375 83.333984375 l 1
 416.333984375 55.5556640625 l 1
 388.556640625 55.5556640625 l 1
 360.778320312 55.5556640625 l 1
 360.778320312 27.77734375 l 1
 360.778320312 0 l 1
 249.666992188 0 l 1
 138.556640625 0 l 1
 138.556640625 27.77734375 l 1
 138.556640625 55.5556640625 l 1
 110.778320312 55.5556640625 l 1
 83 55.5556640625 l 1
 83 194.444335938 l 1
 83 333.333984375 l 1
 110.778320312 333.333984375 l 1
 138.556640625 333.333984375 l 1
 138.556640625 361.111328125 l 1
EndSplineSet
EndChar

StartChar: e
Encoding: 101 101 3
Width: 499
VWidth: 600
Flags: HW
LayerCount: 2
Back
Fore
SplineSet
138.556640625 361.111328125 m 1
 138.556640625 388.888671875 l 1
 249.666992188 388.888671875 l 1
 360.778320312 388.888671875 l 1
 360.778320312 361.111328125 l 1
 360.778320312 333.333984375 l 1
 388.556640625 333.333984375 l 1
 416.333984375 333.333984375 l 1
 416.333984375 250 l 1
 416.333984375 166.666015625 l 1
 277.4453125 166.666015625 l 1
 138.556640625 166.666015625 l 1
 138.556640625 111.111328125 l 1
 138.556640625 55.5556640625 l 1
 249.666992188 55.5556640625 l 1
 360.778320312 55.5556640625 l 1
 360.778320312 83.333984375 l 1
 360.778320312 111.111328125 l 1
 388.556640625 111.111328125 l 1
 416.333984375 111.111328125 l 1
 416.333984375 83.333984375 l 1
 416.333984375 55.5556640625 l 1
 388.556640625 55.5556640625 l 1
 360.778320312 55.5556640625 l 1
 360.778320312 27.77734375 l 1
 360.778320312 0 l 1
 249.666992188 0 l 1
 138.556640625 0 l 1
 138.556640625 27.77734375 l 1
 138.556640625 55.5556640625 l 1
 110.778320312 55.5556640625 l 1
 83 55.5556640625 l 1
 83 194.444335938 l 1
 83 333.333984375 l 1
 110.778320312 333.333984375 l 1
 138.556640625 333.333984375 l 1
 138.556640625 361.111328125 l 1
360.778320312 277.77734375 m 1
 360.778320312 333.333984375 l 1
 249.666992188 333.333984375 l 1
 138.556640625 333.333984375 l 1
 138.556640625 277.77734375 l 1
 138.556640625 222.22265625 l 1
 249.666992188 222.22265625 l 1
 360.778320312 222.22265625 l 1
 360.778320312 277.77734375 l 1
EndSplineSet
EndChar

StartChar: f
Encoding: 102 102 4
Width: 500
VWidth: 600
Flags: HW
LayerCount: 2
Back
Fore
SplineSet
276.333007812 472.22265625 m 1
 276.333007812 500 l 1
 304.111328125 500 l 1
 331.888671875 500 l 1
 331.888671875 472.22265625 l 1
 331.888671875 444.444335938 l 1
 304.111328125 444.444335938 l 1
 276.333007812 444.444335938 l 1
 276.333007812 416.666015625 l 1
 276.333007812 388.888671875 l 1
 304.111328125 388.888671875 l 1
 331.888671875 388.888671875 l 1
 331.888671875 361.111328125 l 1
 331.888671875 333.333984375 l 1
 304.111328125 333.333984375 l 1
 276.333007812 333.333984375 l 1
 276.333007812 194.444335938 l 1
 276.333007812 55.5556640625 l 1
 304.111328125 55.5556640625 l 1
 331.888671875 55.5556640625 l 1
 331.888671875 27.77734375 l 1
 331.888671875 0 l 1
 249.944335938 0 l 1
 168 0 l 1
 168 27.77734375 l 1
 168 55.5556640625 l 1
 194.388671875 55.5556640625 l 1
 220.77734375 55.5556640625 l 1
 220.77734375 194.444335938 l 1
 220.77734375 333.333984375 l 1
 194.388671875 333.333984375 l 1
 168 333.333984375 l 1
 168 361.111328125 l 1
 168 388.888671875 l 1
 194.388671875 388.888671875 l 1
 220.77734375 388.888671875 l 1
 220.77734375 416.666015625 l 1
 220.77734375 444.444335938 l 1
 248.5546875 444.444335938 l 1
 276.333007812 444.444335938 l 1
 276.333007812 472.22265625 l 1
EndSplineSet
EndChar

StartChar: g
Encoding: 103 103 5
Width: 499
VWidth: 600
Flags: HW
LayerCount: 2
Back
Fore
SplineSet
138.556640625 416.666015625 m 1
 138.556640625 444.444335938 l 1
 221.888671875 444.444335938 l 1
 305.22265625 444.444335938 l 1
 305.22265625 416.666015625 l 1
 305.22265625 388.888671875 l 1
 333 388.888671875 l 1
 360.778320312 388.888671875 l 1
 360.778320312 416.666015625 l 1
 360.778320312 444.444335938 l 1
 388.556640625 444.444335938 l 1
 416.333984375 444.444335938 l 1
 416.333984375 250 l 1
 416.333984375 55.5556640625 l 1
 388.556640625 55.5556640625 l 1
 360.778320312 55.5556640625 l 1
 360.778320312 27.77734375 l 1
 360.778320312 0 l 1
 249.666992188 0 l 1
 138.556640625 0 l 1
 138.556640625 27.77734375 l 1
 138.556640625 55.5556640625 l 1
 249.666992188 55.5556640625 l 1
 360.778320312 55.5556640625 l 1
 360.778320312 111.111328125 l 1
 360.778320312 166.666015625 l 1
 333 166.666015625 l 1
 305.22265625 166.666015625 l 1
 305.22265625 138.888671875 l 1
 305.22265625 111.111328125 l 1
 221.888671875 111.111328125 l 1
 138.556640625 111.111328125 l 1
 138.556640625 138.888671875 l 1
 138.556640625 166.666015625 l 1
 110.778320312 166.666015625 l 1
 83 166.666015625 l 1
 83 277.77734375 l 1
 83 388.888671875 l 1
 110.778320312 388.888671875 l 1
 138.556640625 388.888671875 l 1
 138.556640625 416.666015625 l 1
305.22265625 361.111328125 m 1
 305.22265625 388.888671875 l 1
 221.888671875 388.888671875 l 1
 138.556640625 388.888671875 l 1
 138.556640625 277.77734375 l 1
 138.556640625 166.666015625 l 1
 221.888671875 166.666015625 l 1
 305.22265625 166.666015625 l 1
 305.22265625 194.444335938 l 1
 305.22265625 222.22265625 l 1
 333 222.22265625 l 1
 360.778320312 222.22265625 l 1
 360.778320312 277.77734375 l 1
 360.778320312 333.333984375 l 1
 333 333.333984375 l 1
 305.22265625 333.333984375 l 1
 305.22265625 361.111328125 l 1
EndSplineSet
EndChar

StartChar: h
Encoding: 104 104 6
Width: 499
VWidth: 600
Flags: HW
LayerCount: 2
Back
Fore
SplineSet
83 250 m 1
 83 500 l 1
 110.778320312 500 l 1
 138.556640625 500 l 1
 138.556640625 416.666015625 l 1
 138.556640625 333.333984375 l 1
 166.333984375 333.333984375 l 1
 194.111328125 333.333984375 l 1
 194.111328125 361.111328125 l 1
 194.111328125 388.888671875 l 1
 277.4453125 388.888671875 l 1
 360.778320312 388.888671875 l 1
 360.778320312 361.111328125 l 1
 360.778320312 333.333984375 l 1
 388.556640625 333.333984375 l 1
 416.333984375 333.333984375 l 1
 416.333984375 166.666015625 l 1
 416.333984375 0 l 1
 388.556640625 0 l 1
 360.778320312 0 l 1
 360.778320312 166.666015625 l 1
 360.778320312 333.333984375 l 1
 277.4453125 333.333984375 l 1
 194.111328125 333.333984375 l 1
 194.111328125 305.555664062 l 1
 194.111328125 277.77734375 l 1
 166.333984375 277.77734375 l 1
 138.556640625 277.77734375 l 1
 138.556640625 138.888671875 l 1
 138.556640625 0 l 1
 110.778320312 0 l 1
 83 0 l 1
 83 250 l 1
EndSplineSet
EndChar

StartChar: i
Encoding: 105 105 7
Width: 500
VWidth: 600
Flags: HW
LayerCount: 2
Back
Fore
SplineSet
166 361.111328125 m 1
 166 388.888671875 l 1
 221.5546875 388.888671875 l 1
 277.111328125 388.888671875 l 1
 277.111328125 222.22265625 l 1
 277.111328125 55.5556640625 l 1
 304.888671875 55.5556640625 l 1
 332.666015625 55.5556640625 l 1
 332.666015625 27.77734375 l 1
 332.666015625 0 l 1
 249.333007812 0 l 1
 166 0 l 1
 166 27.77734375 l 1
 166 55.5556640625 l 1
 193.77734375 55.5556640625 l 1
 221.5546875 55.5556640625 l 1
 221.5546875 194.444335938 l 1
 221.5546875 333.333984375 l 1
 193.77734375 333.333984375 l 1
 166 333.333984375 l 1
 166 361.111328125 l 1
221.5546875 472.22265625 m 1
 221.5546875 500 l 1
 249.333007812 500 l 1
 277.111328125 500 l 1
 277.111328125 472.22265625 l 1
 277.111328125 444.444335938 l 1
 249.333007812 444.444335938 l 1
 221.5546875 444.444335938 l 1
 221.5546875 472.22265625 l 1
EndSplineSet
EndChar

StartChar: k
Encoding: 107 107 8
Width: 500
VWidth: 600
Flags: HW
LayerCount: 2
Back
Fore
SplineSet
111 250 m 1
 111 500 l 1
 138.778320312 500 l 1
 166.555664062 500 l 1
 166.555664062 361.111328125 l 1
 166.555664062 222.22265625 l 1
 194.333007812 222.22265625 l 1
 222.110351562 222.22265625 l 1
 222.110351562 250 l 1
 222.110351562 277.77734375 l 1
 249.888671875 277.77734375 l 1
 277.666992188 277.77734375 l 1
 277.666992188 305.555664062 l 1
 277.666992188 333.333984375 l 1
 305.444335938 333.333984375 l 1
 333.221679688 333.333984375 l 1
 333.221679688 361.111328125 l 1
 333.221679688 388.888671875 l 1
 361 388.888671875 l 1
 388.778320312 388.888671875 l 1
 388.778320312 361.111328125 l 1
 388.778320312 333.333984375 l 1
 361 333.333984375 l 1
 333.221679688 333.333984375 l 1
 333.221679688 305.555664062 l 1
 333.221679688 277.77734375 l 1
 305.444335938 277.77734375 l 1
 277.666992188 277.77734375 l 1
 277.666992188 250 l 1
 277.666992188 222.22265625 l 1
 249.888671875 222.22265625 l 1
 222.110351562 222.22265625 l 1
 222.110351562 194.444335938 l 1
 222.110351562 166.666015625 l 1
 249.888671875 166.666015625 l 1
 277.666992188 166.666015625 l 1
 277.666992188 138.888671875 l 1
 277.666992188 111.111328125 l 1
 305.444335938 111.111328125 l 1
 333.221679688 111.111328125 l 1
 333.221679688 83.333984375 l 1
 333.221679688 55.5556640625 l 1
 361 55.5556640625 l 1
 388.778320312 55.5556640625 l 1
 388.778320312 27.77734375 l 1
 388.778320312 0 l 1
 361 0 l 1
 333.221679688 0 l 1
 333.221679688 27.77734375 l 1
 333.221679688 55.5556640625 l 1
 305.444335938 55.5556640625 l 1
 277.666992188 55.5556640625 l 1
 277.666992188 83.333984375 l 1
 277.666992188 111.111328125 l 1
 249.888671875 111.111328125 l 1
 222.110351562 111.111328125 l 1
 222.110351562 138.888671875 l 1
 222.110351562 166.666015625 l 1
 194.333007812 166.666015625 l 1
 166.555664062 166.666015625 l 1
 166.555664062 83.333984375 l 1
 166.555664062 0 l 1
 138.778320312 0 l 1
 111 0 l 1
 111 250 l 1
EndSplineSet
EndChar

StartChar: l
Encoding: 108 108 9
Width: 500
VWidth: 600
Flags: HW
LayerCount: 2
Back
Fore
SplineSet
166 472.22265625 m 1
 166 500 l 1
 221.5546875 500 l 1
 277.111328125 500 l 1
 277.111328125 277.77734375 l 1
 277.111328125 55.5556640625 l 1
 304.888671875 55.5556640625 l 1
 332.666015625 55.5556640625 l 1
 332.666015625 27.77734375 l 1
 332.666015625 0 l 1
 249.333007812 0 l 1
 166 0 l 1
 166 27.77734375 l 1
 166 55.5556640625 l 1
 193.77734375 55.5556640625 l 1
 221.5546875 55.5556640625 l 1
 221.5546875 250 l 1
 221.5546875 444.444335938 l 1
 193.77734375 444.444335938 l 1
 166 444.444335938 l 1
 166 472.22265625 l 1
EndSplineSet
EndChar

StartChar: m
Encoding: 109 109 10
Width: 500
VWidth: 600
Flags: HW
LayerCount: 2
Back
Fore
SplineSet
111 194.444335938 m 1
 111 388.888671875 l 1
 166.555664062 388.888671875 l 1
 222.110351562 388.888671875 l 1
 222.110351562 361.111328125 l 1
 222.110351562 333.333984375 l 1
 249.888671875 333.333984375 l 1
 277.666992188 333.333984375 l 1
 277.666992188 361.111328125 l 1
 277.666992188 388.888671875 l 1
 305.444335938 388.888671875 l 1
 333.221679688 388.888671875 l 1
 333.221679688 361.111328125 l 1
 333.221679688 333.333984375 l 1
 361 333.333984375 l 1
 388.778320312 333.333984375 l 1
 388.778320312 166.666015625 l 1
 388.778320312 0 l 1
 361 0 l 1
 333.221679688 0 l 1
 333.221679688 166.666015625 l 1
 333.221679688 333.333984375 l 1
 305.444335938 333.333984375 l 1
 277.666992188 333.333984375 l 1
 277.666992188 166.666015625 l 1
 277.666992188 0 l 1
 249.888671875 0 l 1
 222.110351562 0 l 1
 222.110351562 166.666015625 l 1
 222.110351562 333.333984375 l 1
 194.333007812 333.333984375 l 1
 166.555664062 333.333984375 l 1
 166.555664062 166.666015625 l 1
 166.555664062 0 l 1
 138.778320312 0 l 1
 111 0 l 1
 111 194.444335938 l 1
EndSplineSet
EndChar

StartChar: n
Encoding: 110 110 11
Width: 499
VWidth: 600
Flags: HW
LayerCount: 2
Back
Fore
SplineSet
83 194.444335938 m 1
 83 388.888671875 l 1
 110.778320312 388.888671875 l 1
 138.556640625 388.888671875 l 1
 138.556640625 361.111328125 l 1
 138.556640625 333.333984375 l 1
 166.333984375 333.333984375 l 1
 194.111328125 333.333984375 l 1
 194.111328125 361.111328125 l 1
 194.111328125 388.888671875 l 1
 277.4453125 388.888671875 l 1
 360.778320312 388.888671875 l 1
 360.778320312 361.111328125 l 1
 360.778320312 333.333984375 l 1
 388.556640625 333.333984375 l 1
 416.333984375 333.333984375 l 1
 416.333984375 166.666015625 l 1
 416.333984375 0 l 1
 388.556640625 0 l 1
 360.778320312 0 l 1
 360.778320312 166.666015625 l 1
 360.778320312 333.333984375 l 1
 277.4453125 333.333984375 l 1
 194.111328125 333.333984375 l 1
 194.111328125 305.555664062 l 1
 194.111328125 277.77734375 l 1
 166.333984375 277.77734375 l 1
 138.556640625 277.77734375 l 1
 138.556640625 138.888671875 l 1
 138.556640625 0 l 1
 110.778320312 0 l 1
 83 0 l 1
 83 194.444335938 l 1
EndSplineSet
EndChar

StartChar: o
Encoding: 111 111 12
Width: 499
VWidth: 600
Flags: HW
LayerCount: 2
Back
Fore
SplineSet
194.111328125 361.111328125 m 1
 194.111328125 388.888671875 l 1
 249.666992188 388.888671875 l 1
 305.22265625 388.888671875 l 1
 305.22265625 361.111328125 l 1
 305.22265625 333.333984375 l 1
 333 333.333984375 l 1
 360.778320312 333.333984375 l 1
 360.778320312 305.555664062 l 1
 360.778320312 277.77734375 l 1
 388.556640625 277.77734375 l 1
 416.333984375 277.77734375 l 1
 416.333984375 194.444335938 l 1
 416.333984375 111.111328125 l 1
 388.556640625 111.111328125 l 1
 360.778320312 111.111328125 l 1
 360.778320312 83.333984375 l 1
 360.778320312 55.5556640625 l 1
 333 55.5556640625 l 1
 305.22265625 55.5556640625 l 1
 305.22265625 27.77734375 l 1
 305.22265625 0 l 1
 249.666992188 0 l 1
 194.111328125 0 l 1
 194.111328125 27.77734375 l 1
 194.111328125 55.5556640625 l 1
 166.333984375 55.5556640625 l 1
 138.556640625 55.5556640625 l 1
 138.556640625 83.333984375 l 1
 138.556640625 111.111328125 l 1
 110.778320312 111.111328125 l 1
 83 111.111328125 l 1
 83 194.444335938 l 1
 83 277.77734375 l 1
 110.778320312 277.77734375 l 1
 138.556640625 277.77734375 l 1
 138.556640625 305.555664062 l 1
 138.556640625 333.333984375 l 1
 166.333984375 333.333984375 l 1
 194.111328125 333.333984375 l 1
 194.111328125 361.111328125 l 1
305.22265625 305.555664062 m 1
 305.22265625 333.333984375 l 1
 249.666992188 333.333984375 l 1
 194.111328125 333.333984375 l 1
 194.111328125 305.555664062 l 1
 194.111328125 277.77734375 l 1
 166.333984375 277.77734375 l 1
 138.556640625 277.77734375 l 1
 138.556640625 194.444335938 l 1
 138.556640625 111.111328125 l 1
 166.333984375 111.111328125 l 1
 194.111328125 111.111328125 l 1
 194.111328125 83.333984375 l 1
 194.111328125 55.5556640625 l 1
 249.666992188 55.5556640625 l 1
 305.22265625 55.5556640625 l 1
 305.22265625 83.333984375 l 1
 305.22265625 111.111328125 l 1
 333 111.111328125 l 1
 360.778320312 111.111328125 l 1
 360.778320312 194.444335938 l 1
 360.778320312 277.77734375 l 1
 333 277.77734375 l 1
 305.22265625 277.77734375 l 1
 305.22265625 305.555664062 l 1
EndSplineSet
EndChar

StartChar: p
Encoding: 112 112 13
Width: 499
VWidth: 600
Flags: HW
LayerCount: 2
Back
Fore
SplineSet
83 222.22265625 m 1
 83 444.444335938 l 1
 110.778320312 444.444335938 l 1
 138.556640625 444.444335938 l 1
 138.556640625 416.666015625 l 1
 138.556640625 388.888671875 l 1
 166.333984375 388.888671875 l 1
 194.111328125 388.888671875 l 1
 194.111328125 416.666015625 l 1
 194.111328125 444.444335938 l 1
 277.4453125 444.444335938 l 1
 360.778320312 444.444335938 l 1
 360.778320312 416.666015625 l 1
 360.778320312 388.888671875 l 1
 388.556640625 388.888671875 l 1
 416.333984375 388.888671875 l 1
 416.333984375 277.77734375 l 1
 416.333984375 166.666015625 l 1
 388.556640625 166.666015625 l 1
 360.778320312 166.666015625 l 1
 360.778320312 138.888671875 l 1
 360.778320312 111.111328125 l 1
 277.4453125 111.111328125 l 1
 194.111328125 111.111328125 l 1
 194.111328125 138.888671875 l 1
 194.111328125 166.666015625 l 1
 166.333984375 166.666015625 l 1
 138.556640625 166.666015625 l 1
 138.556640625 83.333984375 l 1
 138.556640625 0 l 1
 110.778320312 0 l 1
 83 0 l 1
 83 222.22265625 l 1
360.778320312 277.77734375 m 1
 360.778320312 388.888671875 l 1
 277.4453125 388.888671875 l 1
 194.111328125 388.888671875 l 1
 194.111328125 361.111328125 l 1
 194.111328125 333.333984375 l 1
 166.333984375 333.333984375 l 1
 138.556640625 333.333984375 l 1
 138.556640625 277.77734375 l 1
 138.556640625 222.22265625 l 1
 166.333984375 222.22265625 l 1
 194.111328125 222.22265625 l 1
 194.111328125 194.444335938 l 1
 194.111328125 166.666015625 l 1
 277.4453125 166.666015625 l 1
 360.778320312 166.666015625 l 1
 360.778320312 277.77734375 l 1
EndSplineSet
EndChar

StartChar: r
Encoding: 114 114 14
Width: 499
VWidth: 600
Flags: HW
LayerCount: 2
Back
Fore
SplineSet
83 361.111328125 m 1
 83 388.888671875 l 1
 110.778320312 388.888671875 l 1
 138.556640625 388.888671875 l 1
 138.556640625 361.111328125 l 1
 138.556640625 333.333984375 l 1
 166.333984375 333.333984375 l 1
 194.111328125 333.333984375 l 1
 194.111328125 361.111328125 l 1
 194.111328125 388.888671875 l 1
 277.4453125 388.888671875 l 1
 360.778320312 388.888671875 l 1
 360.778320312 361.111328125 l 1
 360.778320312 333.333984375 l 1
 388.556640625 333.333984375 l 1
 416.333984375 333.333984375 l 1
 416.333984375 305.555664062 l 1
 416.333984375 277.77734375 l 1
 388.556640625 277.77734375 l 1
 360.778320312 277.77734375 l 1
 360.778320312 305.555664062 l 1
 360.778320312 333.333984375 l 1
 277.4453125 333.333984375 l 1
 194.111328125 333.333984375 l 1
 194.111328125 194.444335938 l 1
 194.111328125 55.5556640625 l 1
 221.888671875 55.5556640625 l 1
 249.666992188 55.5556640625 l 1
 249.666992188 27.77734375 l 1
 249.666992188 0 l 1
 166.333984375 0 l 1
 83 0 l 1
 83 27.77734375 l 1
 83 55.5556640625 l 1
 110.778320312 55.5556640625 l 1
 138.556640625 55.5556640625 l 1
 138.556640625 194.444335938 l 1
 138.556640625 333.333984375 l 1
 110.778320312 333.333984375 l 1
 83 333.333984375 l 1
 83 361.111328125 l 1
EndSplineSet
EndChar

StartChar: s
Encoding: 115 115 15
Width: 499
VWidth: 600
Flags: HW
LayerCount: 2
Back
Fore
SplineSet
138.556640625 361.111328125 m 1
 138.556640625 388.888671875 l 1
 277.4453125 388.888671875 l 1
 416.333984375 388.888671875 l 1
 416.333984375 361.111328125 l 1
 416.333984375 333.333984375 l 1
 277.4453125 333.333984375 l 1
 138.556640625 333.333984375 l 1
 138.556640625 277.77734375 l 1
 138.556640625 222.22265625 l 1
 249.666992188 222.22265625 l 1
 360.778320312 222.22265625 l 1
 360.778320312 194.444335938 l 1
 360.778320312 166.666015625 l 1
 388.556640625 166.666015625 l 1
 416.333984375 166.666015625 l 1
 416.333984375 111.111328125 l 1
 416.333984375 55.5556640625 l 1
 388.556640625 55.5556640625 l 1
 360.778320312 55.5556640625 l 1
 360.778320312 27.77734375 l 1
 360.778320312 0 l 1
 221.888671875 0 l 1
 83 0 l 1
 83 27.77734375 l 1
 83 55.5556640625 l 1
 221.888671875 55.5556640625 l 1
 360.778320312 55.5556640625 l 1
 360.778320312 111.111328125 l 1
 360.778320312 166.666015625 l 1
 249.666992188 166.666015625 l 1
 138.556640625 166.666015625 l 1
 138.556640625 194.444335938 l 1
 138.556640625 222.22265625 l 1
 110.778320312 222.22265625 l 1
 83 222.22265625 l 1
 83 277.77734375 l 1
 83 333.333984375 l 1
 110.778320312 333.333984375 l 1
 138.556640625 333.333984375 l 1
 138.556640625 361.111328125 l 1
EndSplineSet
EndChar

StartChar: t
Encoding: 116 116 16
Width: 500
VWidth: 600
Flags: HW
LayerCount: 2
Back
Fore
SplineSet
221.5546875 444.444335938 m 1
 221.5546875 500 l 1
 249.333007812 500 l 1
 277.111328125 500 l 1
 277.111328125 444.444335938 l 1
 277.111328125 388.888671875 l 1
 304.888671875 388.888671875 l 1
 332.666015625 388.888671875 l 1
 332.666015625 361.111328125 l 1
 332.666015625 333.333984375 l 1
 304.888671875 333.333984375 l 1
 277.111328125 333.333984375 l 1
 277.111328125 194.444335938 l 1
 277.111328125 55.5556640625 l 1
 304.888671875 55.5556640625 l 1
 332.666015625 55.5556640625 l 1
 332.666015625 27.77734375 l 1
 332.666015625 0 l 1
 304.888671875 0 l 1
 277.111328125 0 l 1
 277.111328125 27.77734375 l 1
 277.111328125 55.5556640625 l 1
 249.333007812 55.5556640625 l 1
 221.5546875 55.5556640625 l 1
 221.5546875 194.444335938 l 1
 221.5546875 333.333984375 l 1
 193.77734375 333.333984375 l 1
 166 333.333984375 l 1
 166 361.111328125 l 1
 166 388.888671875 l 1
 193.77734375 388.888671875 l 1
 221.5546875 388.888671875 l 1
 221.5546875 444.444335938 l 1
EndSplineSet
EndChar

StartChar: u
Encoding: 117 117 17
Width: 499
VWidth: 600
Flags: HW
LayerCount: 2
Back
Fore
SplineSet
83 222.22265625 m 1
 83 388.888671875 l 1
 110.778320312 388.888671875 l 1
 138.556640625 388.888671875 l 1
 138.556640625 222.22265625 l 1
 138.556640625 55.5556640625 l 1
 221.888671875 55.5556640625 l 1
 305.22265625 55.5556640625 l 1
 305.22265625 83.333984375 l 1
 305.22265625 111.111328125 l 1
 333 111.111328125 l 1
 360.778320312 111.111328125 l 1
 360.778320312 250 l 1
 360.778320312 388.888671875 l 1
 388.556640625 388.888671875 l 1
 416.333984375 388.888671875 l 1
 416.333984375 194.444335938 l 1
 416.333984375 0 l 1
 388.556640625 0 l 1
 360.778320312 0 l 1
 360.778320312 27.77734375 l 1
 360.778320312 55.5556640625 l 1
 333 55.5556640625 l 1
 305.22265625 55.5556640625 l 1
 305.22265625 27.77734375 l 1
 305.22265625 0 l 1
 221.888671875 0 l 1
 138.556640625 0 l 1
 138.556640625 27.77734375 l 1
 138.556640625 55.5556640625 l 1
 110.778320312 55.5556640625 l 1
 83 55.5556640625 l 1
 83 222.22265625 l 1
EndSplineSet
EndChar

StartChar: v
Encoding: 118 118 18
Width: 500
VWidth: 600
Flags: HW
LayerCount: 2
Back
Fore
SplineSet
111 305.555664062 m 1
 111 388.888671875 l 1
 138.778320312 388.888671875 l 1
 166.555664062 388.888671875 l 1
 166.555664062 305.555664062 l 1
 166.555664062 222.22265625 l 1
 194.333007812 222.22265625 l 1
 222.110351562 222.22265625 l 1
 222.110351562 166.666015625 l 1
 222.110351562 111.111328125 l 1
 249.888671875 111.111328125 l 1
 277.666992188 111.111328125 l 1
 277.666992188 166.666015625 l 1
 277.666992188 222.22265625 l 1
 305.444335938 222.22265625 l 1
 333.221679688 222.22265625 l 1
 333.221679688 305.555664062 l 1
 333.221679688 388.888671875 l 1
 361 388.888671875 l 1
 388.778320312 388.888671875 l 1
 388.778320312 305.555664062 l 1
 388.778320312 222.22265625 l 1
 361 222.22265625 l 1
 333.221679688 222.22265625 l 1
 333.221679688 166.666015625 l 1
 333.221679688 111.111328125 l 1
 305.444335938 111.111328125 l 1
 277.666992188 111.111328125 l 1
 277.666992188 55.5556640625 l 1
 277.666992188 0 l 1
 249.888671875 0 l 1
 222.110351562 0 l 1
 222.110351562 55.5556640625 l 1
 222.110351562 111.111328125 l 1
 194.333007812 111.111328125 l 1
 166.555664062 111.111328125 l 1
 166.555664062 166.666015625 l 1
 166.555664062 222.22265625 l 1
 138.778320312 222.22265625 l 1
 111 222.22265625 l 1
 111 305.555664062 l 1
EndSplineSet
EndChar

StartChar: w
Encoding: 119 119 19
Width: 500
VWidth: 600
Flags: HW
LayerCount: 2
Back
Fore
SplineSet
111 194.444335938 m 1
 111 388.888671875 l 1
 138.778320312 388.888671875 l 1
 166.555664062 388.888671875 l 1
 166.555664062 305.555664062 l 1
 166.555664062 222.22265625 l 1
 194.333007812 222.22265625 l 1
 222.110351562 222.22265625 l 1
 222.110351562 277.77734375 l 1
 222.110351562 333.333984375 l 1
 249.888671875 333.333984375 l 1
 277.666992188 333.333984375 l 1
 277.666992188 277.77734375 l 1
 277.666992188 222.22265625 l 1
 305.444335938 222.22265625 l 1
 333.221679688 222.22265625 l 1
 333.221679688 305.555664062 l 1
 333.221679688 388.888671875 l 1
 361 388.888671875 l 1
 388.778320312 388.888671875 l 1
 388.778320312 194.444335938 l 1
 388.778320312 0 l 1
 361 0 l 1
 333.221679688 0 l 1
 333.221679688 55.5556640625 l 1
 333.221679688 111.111328125 l 1
 305.444335938 111.111328125 l 1
 277.666992188 111.111328125 l 1
 277.666992188 166.666015625 l 1
 277.666992188 222.22265625 l 1
 249.888671875 222.22265625 l 1
 222.110351562 222.22265625 l 1
 222.110351562 166.666015625 l 1
 222.110351562 111.111328125 l 1
 194.333007812 111.111328125 l 1
 166.555664062 111.111328125 l 1
 166.555664062 55.5556640625 l 1
 166.555664062 0 l 1
 138.778320312 0 l 1
 111 0 l 1
 111 194.444335938 l 1
EndSplineSet
EndChar

StartChar: z
Encoding: 122 122 20
Width: 499
VWidth: 600
Flags: HW
LayerCount: 2
Back
Fore
SplineSet
83 361.111328125 m 1
 83 388.888671875 l 1
 249.666992188 388.888671875 l 1
 416.333984375 388.888671875 l 1
 416.333984375 361.111328125 l 1
 416.333984375 333.333984375 l 1
 388.556640625 333.333984375 l 1
 360.778320312 333.333984375 l 1
 360.778320312 305.555664062 l 1
 360.778320312 277.77734375 l 1
 333 277.77734375 l 1
 305.22265625 277.77734375 l 1
 305.22265625 250 l 1
 305.22265625 222.22265625 l 1
 277.4453125 222.22265625 l 1
 249.666992188 222.22265625 l 1
 249.666992188 194.444335938 l 1
 249.666992188 166.666015625 l 1
 221.888671875 166.666015625 l 1
 194.111328125 166.666015625 l 1
 194.111328125 138.888671875 l 1
 194.111328125 111.111328125 l 1
 166.333984375 111.111328125 l 1
 138.556640625 111.111328125 l 1
 138.556640625 83.333984375 l 1
 138.556640625 55.5556640625 l 1
 277.4453125 55.5556640625 l 1
 416.333984375 55.5556640625 l 1
 416.333984375 27.77734375 l 1
 416.333984375 0 l 1
 249.666992188 0 l 1
 83 0 l 1
 83 55.5556640625 l 1
 83 111.111328125 l 1
 110.778320312 111.111328125 l 1
 138.556640625 111.111328125 l 1
 138.556640625 138.888671875 l 1
 138.556640625 166.666015625 l 1
 166.333984375 166.666015625 l 1
 194.111328125 166.666015625 l 1
 194.111328125 194.444335938 l 1
 194.111328125 222.22265625 l 1
 221.888671875 222.22265625 l 1
 249.666992188 222.22265625 l 1
 249.666992188 250 l 1
 249.666992188 277.77734375 l 1
 277.4453125 277.77734375 l 1
 305.22265625 277.77734375 l 1
 305.22265625 305.555664062 l 1
 305.22265625 333.333984375 l 1
 194.111328125 333.333984375 l 1
 83 333.333984375 l 1
 83 361.111328125 l 1
EndSplineSet
EndChar

StartChar: A
Encoding: 65 65 21
Width: 499
VWidth: 600
Flags: HW
LayerCount: 2
Back
Fore
SplineSet
138.556640625 472.22265625 m 1
 138.556640625 500 l 1
 249.666992188 500 l 1
 360.778320312 500 l 1
 360.778320312 472.22265625 l 1
 360.778320312 444.444335938 l 1
 388.556640625 444.444335938 l 1
 416.333984375 444.444335938 l 1
 416.333984375 222.22265625 l 1
 416.333984375 0 l 1
 388.556640625 0 l 1
 360.778320312 0 l 1
 360.778320312 83.333984375 l 1
 360.778320312 166.666015625 l 1
 249.666992188 166.666015625 l 1
 138.556640625 166.666015625 l 1
 138.556640625 83.333984375 l 1
 138.556640625 0 l 1
 110.778320312 0 l 1
 83 0 l 1
 83 222.22265625 l 1
 83 444.444335938 l 1
 110.778320312 444.444335938 l 1
 138.556640625 444.444335938 l 1
 138.556640625 472.22265625 l 1
305.22265625 416.666015625 m 1
 305.22265625 444.444335938 l 1
 249.666992188 444.444335938 l 1
 194.111328125 444.444335938 l 1
 194.111328125 416.666015625 l 1
 194.111328125 388.888671875 l 1
 166.333984375 388.888671875 l 1
 138.556640625 388.888671875 l 1
 138.556640625 305.555664062 l 1
 138.556640625 222.22265625 l 1
 249.666992188 222.22265625 l 1
 360.778320312 222.22265625 l 1
 360.778320312 305.555664062 l 1
 360.778320312 388.888671875 l 1
 333 388.888671875 l 1
 305.22265625 388.888671875 l 1
 305.22265625 416.666015625 l 1
EndSplineSet
EndChar

StartChar: B
Encoding: 66 66 22
Width: 499
VWidth: 600
Flags: HW
LayerCount: 2
Back
Fore
SplineSet
83 250 m 1
 83 500 l 1
 221.888671875 500 l 1
 360.778320312 500 l 1
 360.778320312 472.22265625 l 1
 360.778320312 444.444335938 l 1
 388.556640625 444.444335938 l 1
 416.333984375 444.444335938 l 1
 416.333984375 361.111328125 l 1
 416.333984375 277.77734375 l 1
 388.556640625 277.77734375 l 1
 360.778320312 277.77734375 l 1
 360.778320312 250 l 1
 360.778320312 222.22265625 l 1
 388.556640625 222.22265625 l 1
 416.333984375 222.22265625 l 1
 416.333984375 138.888671875 l 1
 416.333984375 55.5556640625 l 1
 388.556640625 55.5556640625 l 1
 360.778320312 55.5556640625 l 1
 360.778320312 27.77734375 l 1
 360.778320312 0 l 1
 221.888671875 0 l 1
 83 0 l 1
 83 250 l 1
305.22265625 416.666015625 m 1
 305.22265625 444.444335938 l 1
 221.888671875 444.444335938 l 1
 138.556640625 444.444335938 l 1
 138.556640625 361.111328125 l 1
 138.556640625 277.77734375 l 1
 221.888671875 277.77734375 l 1
 305.22265625 277.77734375 l 1
 305.22265625 305.555664062 l 1
 305.22265625 333.333984375 l 1
 333 333.333984375 l 1
 360.778320312 333.333984375 l 1
 360.778320312 361.111328125 l 1
 360.778320312 388.888671875 l 1
 333 388.888671875 l 1
 305.22265625 388.888671875 l 1
 305.22265625 416.666015625 l 1
305.22265625 194.444335938 m 1
 305.22265625 222.22265625 l 1
 221.888671875 222.22265625 l 1
 138.556640625 222.22265625 l 1
 138.556640625 138.888671875 l 1
 138.556640625 55.5556640625 l 1
 221.888671875 55.5556640625 l 1
 305.22265625 55.5556640625 l 1
 305.22265625 83.333984375 l 1
 305.22265625 111.111328125 l 1
 333 111.111328125 l 1
 360.778320312 111.111328125 l 1
 360.778320312 138.888671875 l 1
 360.778320312 166.666015625 l 1
 333 166.666015625 l 1
 305.22265625 166.666015625 l 1
 305.22265625 194.444335938 l 1
EndSplineSet
EndChar

StartChar: C
Encoding: 67 67 23
Width: 499
VWidth: 600
Flags: HW
LayerCount: 2
Back
Fore
SplineSet
138.556640625 472.22265625 m 1
 138.556640625 500 l 1
 249.666992188 500 l 1
 360.778320312 500 l 1
 360.778320312 472.22265625 l 1
 360.778320312 444.444335938 l 1
 388.556640625 444.444335938 l 1
 416.333984375 444.444335938 l 1
 416.333984375 388.888671875 l 1
 416.333984375 333.333984375 l 1
 388.556640625 333.333984375 l 1
 360.778320312 333.333984375 l 1
 360.778320312 361.111328125 l 1
 360.778320312 388.888671875 l 1
 333 388.888671875 l 1
 305.22265625 388.888671875 l 1
 305.22265625 416.666015625 l 1
 305.22265625 444.444335938 l 1
 249.666992188 444.444335938 l 1
 194.111328125 444.444335938 l 1
 194.111328125 416.666015625 l 1
 194.111328125 388.888671875 l 1
 166.333984375 388.888671875 l 1
 138.556640625 388.888671875 l 1
 138.556640625 250 l 1
 138.556640625 111.111328125 l 1
 166.333984375 111.111328125 l 1
 194.111328125 111.111328125 l 1
 194.111328125 83.333984375 l 1
 194.111328125 55.5556640625 l 1
 249.666992188 55.5556640625 l 1
 305.22265625 55.5556640625 l 1
 305.22265625 83.333984375 l 1
 305.22265625 111.111328125 l 1
 333 111.111328125 l 1
 360.778320312 111.111328125 l 1
 360.778320312 138.888671875 l 1
 360.778320312 166.666015625 l 1
 388.556640625 166.666015625 l 1
 416.333984375 166.666015625 l 1
 416.333984375 111.111328125 l 1
 416.333984375 55.5556640625 l 1
 388.556640625 55.5556640625 l 1
 360.778320312 55.5556640625 l 1
 360.778320312 27.77734375 l 1
 360.778320312 0 l 1
 249.666992188 0 l 1
 138.556640625 0 l 1
 138.556640625 27.77734375 l 1
 138.556640625 55.5556640625 l 1
 110.778320312 55.5556640625 l 1
 83 55.5556640625 l 1
 83 250 l 1
 83 444.444335938 l 1
 110.778320312 444.444335938 l 1
 138.556640625 444.444335938 l 1
 138.556640625 472.22265625 l 1
EndSplineSet
EndChar

StartChar: D
Encoding: 68 68 24
Width: 499
VWidth: 600
Flags: HW
LayerCount: 2
Back
Fore
SplineSet
83 250 m 1
 83 500 l 1
 221.888671875 500 l 1
 360.778320312 500 l 1
 360.778320312 472.22265625 l 1
 360.778320312 444.444335938 l 1
 388.556640625 444.444335938 l 1
 416.333984375 444.444335938 l 1
 416.333984375 250 l 1
 416.333984375 55.5556640625 l 1
 388.556640625 55.5556640625 l 1
 360.778320312 55.5556640625 l 1
 360.778320312 27.77734375 l 1
 360.778320312 0 l 1
 221.888671875 0 l 1
 83 0 l 1
 83 250 l 1
305.22265625 416.666015625 m 1
 305.22265625 444.444335938 l 1
 221.888671875 444.444335938 l 1
 138.556640625 444.444335938 l 1
 138.556640625 250 l 1
 138.556640625 55.5556640625 l 1
 221.888671875 55.5556640625 l 1
 305.22265625 55.5556640625 l 1
 305.22265625 83.333984375 l 1
 305.22265625 111.111328125 l 1
 333 111.111328125 l 1
 360.778320312 111.111328125 l 1
 360.778320312 250 l 1
 360.778320312 388.888671875 l 1
 333 388.888671875 l 1
 305.22265625 388.888671875 l 1
 305.22265625 416.666015625 l 1
EndSplineSet
EndChar

StartChar: E
Encoding: 69 69 25
Width: 499
VWidth: 600
Flags: HW
LayerCount: 2
Back
Fore
SplineSet
83 250 m 1
 83 500 l 1
 249.666992188 500 l 1
 416.333984375 500 l 1
 416.333984375 472.22265625 l 1
 416.333984375 444.444335938 l 1
 277.4453125 444.444335938 l 1
 138.556640625 444.444335938 l 1
 138.556640625 361.111328125 l 1
 138.556640625 277.77734375 l 1
 221.888671875 277.77734375 l 1
 305.22265625 277.77734375 l 1
 305.22265625 250 l 1
 305.22265625 222.22265625 l 1
 221.888671875 222.22265625 l 1
 138.556640625 222.22265625 l 1
 138.556640625 138.888671875 l 1
 138.556640625 55.5556640625 l 1
 277.4453125 55.5556640625 l 1
 416.333984375 55.5556640625 l 1
 416.333984375 27.77734375 l 1
 416.333984375 0 l 1
 249.666992188 0 l 1
 83 0 l 1
 83 250 l 1
EndSplineSet
EndChar

StartChar: F
Encoding: 70 70 26
Width: 499
VWidth: 600
Flags: HW
LayerCount: 2
Back
Fore
SplineSet
83 250 m 1
 83 500 l 1
 249.666992188 500 l 1
 416.333984375 500 l 1
 416.333984375 472.22265625 l 1
 416.333984375 444.444335938 l 1
 277.4453125 444.444335938 l 1
 138.556640625 444.444335938 l 1
 138.556640625 361.111328125 l 1
 138.556640625 277.77734375 l 1
 221.888671875 277.77734375 l 1
 305.22265625 277.77734375 l 1
 305.22265625 250 l 1
 305.22265625 222.22265625 l 1
 221.888671875 222.22265625 l 1
 138.556640625 222.22265625 l 1
 138.556640625 111.111328125 l 1
 138.556640625 0 l 1
 110.778320312 0 l 1
 83 0 l 1
 83 250 l 1
EndSplineSet
EndChar

StartChar: G
Encoding: 71 71 27
Width: 499
VWidth: 600
Flags: HW
LayerCount: 2
Back
Fore
SplineSet
138.556640625 472.22265625 m 1
 138.556640625 500 l 1
 249.666992188 500 l 1
 360.778320312 500 l 1
 360.778320312 472.22265625 l 1
 360.778320312 444.444335938 l 1
 388.556640625 444.444335938 l 1
 416.333984375 444.444335938 l 1
 416.333984375 416.666015625 l 1
 416.333984375 388.888671875 l 1
 360.778320312 388.888671875 l 1
 305.22265625 388.888671875 l 1
 305.22265625 416.666015625 l 1
 305.22265625 444.444335938 l 1
 249.666992188 444.444335938 l 1
 194.111328125 444.444335938 l 1
 194.111328125 416.666015625 l 1
 194.111328125 388.888671875 l 1
 166.333984375 388.888671875 l 1
 138.556640625 388.888671875 l 1
 138.556640625 250 l 1
 138.556640625 111.111328125 l 1
 166.333984375 111.111328125 l 1
 194.111328125 111.111328125 l 1
 194.111328125 83.333984375 l 1
 194.111328125 55.5556640625 l 1
 277.4453125 55.5556640625 l 1
 360.778320312 55.5556640625 l 1
 360.778320312 138.888671875 l 1
 360.778320312 222.22265625 l 1
 305.22265625 222.22265625 l 1
 249.666992188 222.22265625 l 1
 249.666992188 250 l 1
 249.666992188 277.77734375 l 1
 333 277.77734375 l 1
 416.333984375 277.77734375 l 1
 416.333984375 138.888671875 l 1
 416.333984375 0 l 1
 277.4453125 0 l 1
 138.556640625 0 l 1
 138.556640625 27.77734375 l 1
 138.556640625 55.5556640625 l 1
 110.778320312 55.5556640625 l 1
 83 55.5556640625 l 1
 83 250 l 1
 83 444.444335938 l 1
 110.778320312 444.444335938 l 1
 138.556640625 444.444335938 l 1
 138.556640625 472.22265625 l 1
EndSplineSet
EndChar

StartChar: H
Encoding: 72 72 28
Width: 499
VWidth: 600
Flags: HW
LayerCount: 2
Back
Fore
SplineSet
83 250 m 1
 83 500 l 1
 110.778320312 500 l 1
 138.556640625 500 l 1
 138.556640625 388.888671875 l 1
 138.556640625 277.77734375 l 1
 249.666992188 277.77734375 l 1
 360.778320312 277.77734375 l 1
 360.778320312 388.888671875 l 1
 360.778320312 500 l 1
 388.556640625 500 l 1
 416.333984375 500 l 1
 416.333984375 250 l 1
 416.333984375 0 l 1
 388.556640625 0 l 1
 360.778320312 0 l 1
 360.778320312 111.111328125 l 1
 360.778320312 222.22265625 l 1
 249.666992188 222.22265625 l 1
 138.556640625 222.22265625 l 1
 138.556640625 111.111328125 l 1
 138.556640625 0 l 1
 110.778320312 0 l 1
 83 0 l 1
 83 250 l 1
EndSplineSet
EndChar

StartChar: I
Encoding: 73 73 29
Width: 500
VWidth: 600
Flags: HW
LayerCount: 2
Back
Fore
SplineSet
111 472.22265625 m 1
 111 500 l 1
 249.888671875 500 l 1
 388.778320312 500 l 1
 388.778320312 472.22265625 l 1
 388.778320312 444.444335938 l 1
 333.221679688 444.444335938 l 1
 277.666992188 444.444335938 l 1
 277.666992188 250 l 1
 277.666992188 55.5556640625 l 1
 333.221679688 55.5556640625 l 1
 388.778320312 55.5556640625 l 1
 388.778320312 27.77734375 l 1
 388.778320312 0 l 1
 249.888671875 0 l 1
 111 0 l 1
 111 27.77734375 l 1
 111 55.5556640625 l 1
 166.555664062 55.5556640625 l 1
 222.110351562 55.5556640625 l 1
 222.110351562 250 l 1
 222.110351562 444.444335938 l 1
 166.555664062 444.444335938 l 1
 111 444.444335938 l 1
 111 472.22265625 l 1
EndSplineSet
EndChar

StartChar: K
Encoding: 75 75 30
Width: 499
VWidth: 600
Flags: HW
LayerCount: 2
Back
Fore
SplineSet
83 250 m 1
 83 500 l 1
 110.778320312 500 l 1
 138.556640625 500 l 1
 138.556640625 388.888671875 l 1
 138.556640625 277.77734375 l 1
 166.333984375 277.77734375 l 1
 194.111328125 277.77734375 l 1
 194.111328125 305.555664062 l 1
 194.111328125 333.333984375 l 1
 221.888671875 333.333984375 l 1
 249.666992188 333.333984375 l 1
 249.666992188 361.111328125 l 1
 249.666992188 388.888671875 l 1
 277.4453125 388.888671875 l 1
 305.22265625 388.888671875 l 1
 305.22265625 416.666015625 l 1
 305.22265625 444.444335938 l 1
 333 444.444335938 l 1
 360.778320312 444.444335938 l 1
 360.778320312 472.22265625 l 1
 360.778320312 500 l 1
 388.556640625 500 l 1
 416.333984375 500 l 1
 416.333984375 444.444335938 l 1
 416.333984375 388.888671875 l 1
 388.556640625 388.888671875 l 1
 360.778320312 388.888671875 l 1
 360.778320312 361.111328125 l 1
 360.778320312 333.333984375 l 1
 333 333.333984375 l 1
 305.22265625 333.333984375 l 1
 305.22265625 305.555664062 l 1
 305.22265625 277.77734375 l 1
 277.4453125 277.77734375 l 1
 249.666992188 277.77734375 l 1
 249.666992188 250 l 1
 249.666992188 222.22265625 l 1
 277.4453125 222.22265625 l 1
 305.22265625 222.22265625 l 1
 305.22265625 194.444335938 l 1
 305.22265625 166.666015625 l 1
 333 166.666015625 l 1
 360.778320312 166.666015625 l 1
 360.778320312 138.888671875 l 1
 360.778320312 111.111328125 l 1
 388.556640625 111.111328125 l 1
 416.333984375 111.111328125 l 1
 416.333984375 55.5556640625 l 1
 416.333984375 0 l 1
 388.556640625 0 l 1
 360.778320312 0 l 1
 360.778320312 27.77734375 l 1
 360.778320312 55.5556640625 l 1
 333 55.5556640625 l 1
 305.22265625 55.5556640625 l 1
 305.22265625 83.333984375 l 1
 305.22265625 111.111328125 l 1
 277.4453125 111.111328125 l 1
 249.666992188 111.111328125 l 1
 249.666992188 138.888671875 l 1
 249.666992188 166.666015625 l 1
 221.888671875 166.666015625 l 1
 194.111328125 166.666015625 l 1
 194.111328125 194.444335938 l 1
 194.111328125 222.22265625 l 1
 166.333984375 222.22265625 l 1
 138.556640625 222.22265625 l 1
 138.556640625 111.111328125 l 1
 138.556640625 0 l 1
 110.778320312 0 l 1
 83 0 l 1
 83 250 l 1
EndSplineSet
EndChar

StartChar: L
Encoding: 76 76 31
Width: 499
VWidth: 600
Flags: HW
LayerCount: 2
Back
Fore
SplineSet
83 250 m 1
 83 500 l 1
 110.778320312 500 l 1
 138.556640625 500 l 1
 138.556640625 277.77734375 l 1
 138.556640625 55.5556640625 l 1
 277.4453125 55.5556640625 l 1
 416.333984375 55.5556640625 l 1
 416.333984375 27.77734375 l 1
 416.333984375 0 l 1
 249.666992188 0 l 1
 83 0 l 1
 83 250 l 1
EndSplineSet
EndChar

StartChar: M
Encoding: 77 77 32
Width: 499
VWidth: 600
Flags: HW
LayerCount: 2
Back
Fore
SplineSet
83 250 m 1
 83 500 l 1
 110.778320312 500 l 1
 138.556640625 500 l 1
 138.556640625 472.22265625 l 1
 138.556640625 444.444335938 l 1
 166.333984375 444.444335938 l 1
 194.111328125 444.444335938 l 1
 194.111328125 388.888671875 l 1
 194.111328125 333.333984375 l 1
 249.666992188 333.333984375 l 1
 305.22265625 333.333984375 l 1
 305.22265625 388.888671875 l 1
 305.22265625 444.444335938 l 1
 333 444.444335938 l 1
 360.778320312 444.444335938 l 1
 360.778320312 472.22265625 l 1
 360.778320312 500 l 1
 388.556640625 500 l 1
 416.333984375 500 l 1
 416.333984375 250 l 1
 416.333984375 0 l 1
 388.556640625 0 l 1
 360.778320312 0 l 1
 360.778320312 166.666015625 l 1
 360.778320312 333.333984375 l 1
 333 333.333984375 l 1
 305.22265625 333.333984375 l 1
 305.22265625 277.77734375 l 1
 305.22265625 222.22265625 l 1
 249.666992188 222.22265625 l 1
 194.111328125 222.22265625 l 1
 194.111328125 277.77734375 l 1
 194.111328125 333.333984375 l 1
 166.333984375 333.333984375 l 1
 138.556640625 333.333984375 l 1
 138.556640625 166.666015625 l 1
 138.556640625 0 l 1
 110.778320312 0 l 1
 83 0 l 1
 83 250 l 1
EndSplineSet
EndChar

StartChar: N
Encoding: 78 78 33
Width: 499
VWidth: 600
Flags: HW
LayerCount: 2
Back
Fore
SplineSet
83 250 m 1
 83 500 l 1
 110.778320312 500 l 1
 138.556640625 500 l 1
 138.556640625 472.22265625 l 1
 138.556640625 444.444335938 l 1
 166.333984375 444.444335938 l 1
 194.111328125 444.444335938 l 1
 194.111328125 388.888671875 l 1
 194.111328125 333.333984375 l 1
 221.888671875 333.333984375 l 1
 249.666992188 333.333984375 l 1
 249.666992188 277.77734375 l 1
 249.666992188 222.22265625 l 1
 277.4453125 222.22265625 l 1
 305.22265625 222.22265625 l 1
 305.22265625 166.666015625 l 1
 305.22265625 111.111328125 l 1
 333 111.111328125 l 1
 360.778320312 111.111328125 l 1
 360.778320312 305.555664062 l 1
 360.778320312 500 l 1
 388.556640625 500 l 1
 416.333984375 500 l 1
 416.333984375 250 l 1
 416.333984375 0 l 1
 360.778320312 0 l 1
 305.22265625 0 l 1
 305.22265625 55.5556640625 l 1
 305.22265625 111.111328125 l 1
 277.4453125 111.111328125 l 1
 249.666992188 111.111328125 l 1
 249.666992188 166.666015625 l 1
 249.666992188 222.22265625 l 1
 221.888671875 222.22265625 l 1
 194.111328125 222.22265625 l 1
 194.111328125 277.77734375 l 1
 194.111328125 333.333984375 l 1
 166.333984375 333.333984375 l 1
 138.556640625 333.333984375 l 1
 138.556640625 166.666015625 l 1
 138.556640625 0 l 1
 110.778320312 0 l 1
 83 0 l 1
 83 250 l 1
EndSplineSet
EndChar

StartChar: O
Encoding: 79 79 34
Width: 499
VWidth: 600
Flags: HW
LayerCount: 2
Back
Fore
SplineSet
138.556640625 472.22265625 m 1
 138.556640625 500 l 1
 249.666992188 500 l 1
 360.778320312 500 l 1
 360.778320312 472.22265625 l 1
 360.778320312 444.444335938 l 1
 388.556640625 444.444335938 l 1
 416.333984375 444.444335938 l 1
 416.333984375 250 l 1
 416.333984375 55.5556640625 l 1
 388.556640625 55.5556640625 l 1
 360.778320312 55.5556640625 l 1
 360.778320312 27.77734375 l 1
 360.778320312 0 l 1
 249.666992188 0 l 1
 138.556640625 0 l 1
 138.556640625 27.77734375 l 1
 138.556640625 55.5556640625 l 1
 110.778320312 55.5556640625 l 1
 83 55.5556640625 l 1
 83 250 l 1
 83 444.444335938 l 1
 110.778320312 444.444335938 l 1
 138.556640625 444.444335938 l 1
 138.556640625 472.22265625 l 1
305.22265625 416.666015625 m 1
 305.22265625 444.444335938 l 1
 249.666992188 444.444335938 l 1
 194.111328125 444.444335938 l 1
 194.111328125 416.666015625 l 1
 194.111328125 388.888671875 l 1
 166.333984375 388.888671875 l 1
 138.556640625 388.888671875 l 1
 138.556640625 250 l 1
 138.556640625 111.111328125 l 1
 166.333984375 111.111328125 l 1
 194.111328125 111.111328125 l 1
 194.111328125 83.333984375 l 1
 194.111328125 55.5556640625 l 1
 249.666992188 55.5556640625 l 1
 305.22265625 55.5556640625 l 1
 305.22265625 83.333984375 l 1
 305.22265625 111.111328125 l 1
 333 111.111328125 l 1
 360.778320312 111.111328125 l 1
 360.778320312 250 l 1
 360.778320312 388.888671875 l 1
 333 388.888671875 l 1
 305.22265625 388.888671875 l 1
 305.22265625 416.666015625 l 1
EndSplineSet
EndChar

StartChar: P
Encoding: 80 80 35
Width: 499
VWidth: 600
Flags: HW
LayerCount: 2
Back
Fore
SplineSet
83 250 m 1
 83 500 l 1
 221.888671875 500 l 1
 360.778320312 500 l 1
 360.778320312 472.22265625 l 1
 360.778320312 444.444335938 l 1
 388.556640625 444.444335938 l 1
 416.333984375 444.444335938 l 1
 416.333984375 361.111328125 l 1
 416.333984375 277.77734375 l 1
 388.556640625 277.77734375 l 1
 360.778320312 277.77734375 l 1
 360.778320312 250 l 1
 360.778320312 222.22265625 l 1
 249.666992188 222.22265625 l 1
 138.556640625 222.22265625 l 1
 138.556640625 111.111328125 l 1
 138.556640625 0 l 1
 110.778320312 0 l 1
 83 0 l 1
 83 250 l 1
305.22265625 416.666015625 m 1
 305.22265625 444.444335938 l 1
 221.888671875 444.444335938 l 1
 138.556640625 444.444335938 l 1
 138.556640625 361.111328125 l 1
 138.556640625 277.77734375 l 1
 221.888671875 277.77734375 l 1
 305.22265625 277.77734375 l 1
 305.22265625 305.555664062 l 1
 305.22265625 333.333984375 l 1
 333 333.333984375 l 1
 360.778320312 333.333984375 l 1
 360.778320312 361.111328125 l 1
 360.778320312 388.888671875 l 1
 333 388.888671875 l 1
 305.22265625 388.888671875 l 1
 305.22265625 416.666015625 l 1
EndSplineSet
EndChar

StartChar: Q
Encoding: 81 81 36
Width: 499
VWidth: 600
Flags: HW
LayerCount: 2
Back
Fore
SplineSet
194.111328125 194.444335938 m 1
 194.111328125 222.22265625 l 1
 221.888671875 222.22265625 l 1
 249.666992188 222.22265625 l 1
 249.666992188 194.444335938 l 1
 249.666992188 166.666015625 l 1
 277.4453125 166.666015625 l 1
 305.22265625 166.666015625 l 1
 305.22265625 138.888671875 l 1
 305.22265625 111.111328125 l 1
 277.4453125 111.111328125 l 1
 249.666992188 111.111328125 l 1
 249.666992188 138.888671875 l 1
 249.666992188 166.666015625 l 1
 221.888671875 166.666015625 l 1
 194.111328125 166.666015625 l 1
 194.111328125 194.444335938 l 1
138.556640625 472.22265625 m 1
 138.556640625 500 l 1
 249.666992188 500 l 1
 360.778320312 500 l 1
 360.778320312 472.22265625 l 1
 360.778320312 444.444335938 l 1
 388.556640625 444.444335938 l 1
 416.333984375 444.444335938 l 1
 416.333984375 277.77734375 l 1
 416.333984375 111.111328125 l 1
 388.556640625 111.111328125 l 1
 360.778320312 111.111328125 l 1
 360.778320312 83.333984375 l 1
 360.778320312 55.5556640625 l 1
 388.556640625 55.5556640625 l 1
 416.333984375 55.5556640625 l 1
 416.333984375 27.77734375 l 1
 416.333984375 0 l 1
 388.556640625 0 l 1
 360.778320312 0 l 1
 360.778320312 27.77734375 l 1
 360.778320312 55.5556640625 l 1
 333 55.5556640625 l 1
 305.22265625 55.5556640625 l 1
 305.22265625 27.77734375 l 1
 305.22265625 0 l 1
 221.888671875 0 l 1
 138.556640625 0 l 1
 138.556640625 27.77734375 l 1
 138.556640625 55.5556640625 l 1
 110.778320312 55.5556640625 l 1
 83 55.5556640625 l 1
 83 250 l 1
 83 444.444335938 l 1
 110.778320312 444.444335938 l 1
 138.556640625 444.444335938 l 1
 138.556640625 472.22265625 l 1
305.22265625 416.666015625 m 1
 305.22265625 444.444335938 l 1
 249.666992188 444.444335938 l 1
 194.111328125 444.444335938 l 1
 194.111328125 416.666015625 l 1
 194.111328125 388.888671875 l 1
 166.333984375 388.888671875 l 1
 138.556640625 388.888671875 l 1
 138.556640625 250 l 1
 138.556640625 111.111328125 l 1
 166.333984375 111.111328125 l 1
 194.111328125 111.111328125 l 1
 194.111328125 83.333984375 l 1
 194.111328125 55.5556640625 l 1
 249.666992188 55.5556640625 l 1
 305.22265625 55.5556640625 l 1
 305.22265625 83.333984375 l 1
 305.22265625 111.111328125 l 1
 333 111.111328125 l 1
 360.778320312 111.111328125 l 1
 360.778320312 250 l 1
 360.778320312 388.888671875 l 1
 333 388.888671875 l 1
 305.22265625 388.888671875 l 1
 305.22265625 416.666015625 l 1
EndSplineSet
EndChar

StartChar: R
Encoding: 82 82 37
Width: 499
VWidth: 600
Flags: HW
LayerCount: 2
Back
Fore
SplineSet
83 250 m 1
 83 500 l 1
 221.888671875 500 l 1
 360.778320312 500 l 1
 360.778320312 472.22265625 l 1
 360.778320312 444.444335938 l 1
 388.556640625 444.444335938 l 1
 416.333984375 444.444335938 l 1
 416.333984375 361.111328125 l 1
 416.333984375 277.77734375 l 1
 388.556640625 277.77734375 l 1
 360.778320312 277.77734375 l 1
 360.778320312 250 l 1
 360.778320312 222.22265625 l 1
 305.22265625 222.22265625 l 1
 249.666992188 222.22265625 l 1
 249.666992188 194.444335938 l 1
 249.666992188 166.666015625 l 1
 277.4453125 166.666015625 l 1
 305.22265625 166.666015625 l 1
 305.22265625 138.888671875 l 1
 305.22265625 111.111328125 l 1
 333 111.111328125 l 1
 360.778320312 111.111328125 l 1
 360.778320312 83.333984375 l 1
 360.778320312 55.5556640625 l 1
 388.556640625 55.5556640625 l 1
 416.333984375 55.5556640625 l 1
 416.333984375 27.77734375 l 1
 416.333984375 0 l 1
 360.778320312 0 l 1
 305.22265625 0 l 1
 305.22265625 27.77734375 l 1
 305.22265625 55.5556640625 l 1
 277.4453125 55.5556640625 l 1
 249.666992188 55.5556640625 l 1
 249.666992188 83.333984375 l 1
 249.666992188 111.111328125 l 1
 221.888671875 111.111328125 l 1
 194.111328125 111.111328125 l 1
 194.111328125 138.888671875 l 1
 194.111328125 166.666015625 l 1
 166.333984375 166.666015625 l 1
 138.556640625 166.666015625 l 1
 138.556640625 83.333984375 l 1
 138.556640625 0 l 1
 110.778320312 0 l 1
 83 0 l 1
 83 250 l 1
305.22265625 416.666015625 m 1
 305.22265625 444.444335938 l 1
 221.888671875 444.444335938 l 1
 138.556640625 444.444335938 l 1
 138.556640625 361.111328125 l 1
 138.556640625 277.77734375 l 1
 221.888671875 277.77734375 l 1
 305.22265625 277.77734375 l 1
 305.22265625 305.555664062 l 1
 305.22265625 333.333984375 l 1
 333 333.333984375 l 1
 360.778320312 333.333984375 l 1
 360.778320312 361.111328125 l 1
 360.778320312 388.888671875 l 1
 333 388.888671875 l 1
 305.22265625 388.888671875 l 1
 305.22265625 416.666015625 l 1
EndSplineSet
EndChar

StartChar: S
Encoding: 83 83 38
Width: 499
VWidth: 600
Flags: HW
LayerCount: 2
Back
Fore
SplineSet
138.556640625 472.22265625 m 1
 138.556640625 500 l 1
 249.666992188 500 l 1
 360.778320312 500 l 1
 360.778320312 472.22265625 l 1
 360.778320312 444.444335938 l 1
 388.556640625 444.444335938 l 1
 416.333984375 444.444335938 l 1
 416.333984375 388.888671875 l 1
 416.333984375 333.333984375 l 1
 388.556640625 333.333984375 l 1
 360.778320312 333.333984375 l 1
 360.778320312 361.111328125 l 1
 360.778320312 388.888671875 l 1
 333 388.888671875 l 1
 305.22265625 388.888671875 l 1
 305.22265625 416.666015625 l 1
 305.22265625 444.444335938 l 1
 249.666992188 444.444335938 l 1
 194.111328125 444.444335938 l 1
 194.111328125 416.666015625 l 1
 194.111328125 388.888671875 l 1
 166.333984375 388.888671875 l 1
 138.556640625 388.888671875 l 1
 138.556640625 361.111328125 l 1
 138.556640625 333.333984375 l 1
 166.333984375 333.333984375 l 1
 194.111328125 333.333984375 l 1
 194.111328125 305.555664062 l 1
 194.111328125 277.77734375 l 1
 277.4453125 277.77734375 l 1
 360.778320312 277.77734375 l 1
 360.778320312 250 l 1
 360.778320312 222.22265625 l 1
 388.556640625 222.22265625 l 1
 416.333984375 222.22265625 l 1
 416.333984375 138.888671875 l 1
 416.333984375 55.5556640625 l 1
 388.556640625 55.5556640625 l 1
 360.778320312 55.5556640625 l 1
 360.778320312 27.77734375 l 1
 360.778320312 0 l 1
 249.666992188 0 l 1
 138.556640625 0 l 1
 138.556640625 27.77734375 l 1
 138.556640625 55.5556640625 l 1
 110.778320312 55.5556640625 l 1
 83 55.5556640625 l 1
 83 111.111328125 l 1
 83 166.666015625 l 1
 110.778320312 166.666015625 l 1
 138.556640625 166.666015625 l 1
 138.556640625 138.888671875 l 1
 138.556640625 111.111328125 l 1
 166.333984375 111.111328125 l 1
 194.111328125 111.111328125 l 1
 194.111328125 83.333984375 l 1
 194.111328125 55.5556640625 l 1
 249.666992188 55.5556640625 l 1
 305.22265625 55.5556640625 l 1
 305.22265625 83.333984375 l 1
 305.22265625 111.111328125 l 1
 333 111.111328125 l 1
 360.778320312 111.111328125 l 1
 360.778320312 138.888671875 l 1
 360.778320312 166.666015625 l 1
 333 166.666015625 l 1
 305.22265625 166.666015625 l 1
 305.22265625 194.444335938 l 1
 305.22265625 222.22265625 l 1
 221.888671875 222.22265625 l 1
 138.556640625 222.22265625 l 1
 138.556640625 250 l 1
 138.556640625 277.77734375 l 1
 110.778320312 277.77734375 l 1
 83 277.77734375 l 1
 83 361.111328125 l 1
 83 444.444335938 l 1
 110.778320312 444.444335938 l 1
 138.556640625 444.444335938 l 1
 138.556640625 472.22265625 l 1
EndSplineSet
EndChar

StartChar: T
Encoding: 84 84 39
Width: 500
VWidth: 600
Flags: HW
LayerCount: 2
Back
Fore
SplineSet
111 472.22265625 m 1
 111 500 l 1
 249.888671875 500 l 1
 388.778320312 500 l 1
 388.778320312 472.22265625 l 1
 388.778320312 444.444335938 l 1
 333.221679688 444.444335938 l 1
 277.666992188 444.444335938 l 1
 277.666992188 222.22265625 l 1
 277.666992188 0 l 1
 249.888671875 0 l 1
 222.110351562 0 l 1
 222.110351562 222.22265625 l 1
 222.110351562 444.444335938 l 1
 166.555664062 444.444335938 l 1
 111 444.444335938 l 1
 111 472.22265625 l 1
EndSplineSet
EndChar

StartChar: U
Encoding: 85 85 40
Width: 499
VWidth: 600
Flags: HW
LayerCount: 2
Back
Fore
SplineSet
83 277.77734375 m 1
 83 500 l 1
 110.778320312 500 l 1
 138.556640625 500 l 1
 138.556640625 305.555664062 l 1
 138.556640625 111.111328125 l 1
 166.333984375 111.111328125 l 1
 194.111328125 111.111328125 l 1
 194.111328125 83.333984375 l 1
 194.111328125 55.5556640625 l 1
 249.666992188 55.5556640625 l 1
 305.22265625 55.5556640625 l 1
 305.22265625 83.333984375 l 1
 305.22265625 111.111328125 l 1
 333 111.111328125 l 1
 360.778320312 111.111328125 l 1
 360.778320312 305.555664062 l 1
 360.778320312 500 l 1
 388.556640625 500 l 1
 416.333984375 500 l 1
 416.333984375 277.77734375 l 1
 416.333984375 55.5556640625 l 1
 388.556640625 55.5556640625 l 1
 360.778320312 55.5556640625 l 1
 360.778320312 27.77734375 l 1
 360.778320312 0 l 1
 249.666992188 0 l 1
 138.556640625 0 l 1
 138.556640625 27.77734375 l 1
 138.556640625 55.5556640625 l 1
 110.778320312 55.5556640625 l 1
 83 55.5556640625 l 1
 83 277.77734375 l 1
EndSplineSet
EndChar

StartChar: V
Encoding: 86 86 41
Width: 499
VWidth: 600
Flags: HW
LayerCount: 2
Back
Fore
SplineSet
83 361.111328125 m 1
 83 500 l 1
 110.778320312 500 l 1
 138.556640625 500 l 1
 138.556640625 361.111328125 l 1
 138.556640625 222.22265625 l 1
 166.333984375 222.22265625 l 1
 194.111328125 222.22265625 l 1
 194.111328125 166.666015625 l 1
 194.111328125 111.111328125 l 1
 249.666992188 111.111328125 l 1
 305.22265625 111.111328125 l 1
 305.22265625 166.666015625 l 1
 305.22265625 222.22265625 l 1
 333 222.22265625 l 1
 360.778320312 222.22265625 l 1
 360.778320312 361.111328125 l 1
 360.778320312 500 l 1
 388.556640625 500 l 1
 416.333984375 500 l 1
 416.333984375 361.111328125 l 1
 416.333984375 222.22265625 l 1
 388.556640625 222.22265625 l 1
 360.778320312 222.22265625 l 1
 360.778320312 166.666015625 l 1
 360.778320312 111.111328125 l 1
 333 111.111328125 l 1
 305.22265625 111.111328125 l 1
 305.22265625 55.5556640625 l 1
 305.22265625 0 l 1
 249.666992188 0 l 1
 194.111328125 0 l 1
 194.111328125 55.5556640625 l 1
 194.111328125 111.111328125 l 1
 166.333984375 111.111328125 l 1
 138.556640625 111.111328125 l 1
 138.556640625 166.666015625 l 1
 138.556640625 222.22265625 l 1
 110.778320312 222.22265625 l 1
 83 222.22265625 l 1
 83 361.111328125 l 1
EndSplineSet
EndChar

StartChar: W
Encoding: 87 87 42
Width: 499
VWidth: 600
Flags: HW
LayerCount: 2
Back
Fore
SplineSet
83 277.77734375 m 1
 83 500 l 1
 110.778320312 500 l 1
 138.556640625 500 l 1
 138.556640625 277.77734375 l 1
 138.556640625 55.5556640625 l 1
 166.333984375 55.5556640625 l 1
 194.111328125 55.5556640625 l 1
 194.111328125 111.111328125 l 1
 194.111328125 166.666015625 l 1
 249.666992188 166.666015625 l 1
 305.22265625 166.666015625 l 1
 305.22265625 111.111328125 l 1
 305.22265625 55.5556640625 l 1
 333 55.5556640625 l 1
 360.778320312 55.5556640625 l 1
 360.778320312 277.77734375 l 1
 360.778320312 500 l 1
 388.556640625 500 l 1
 416.333984375 500 l 1
 416.333984375 277.77734375 l 1
 416.333984375 55.5556640625 l 1
 388.556640625 55.5556640625 l 1
 360.778320312 55.5556640625 l 1
 360.778320312 27.77734375 l 1
 360.778320312 0 l 1
 333 0 l 1
 305.22265625 0 l 1
 305.22265625 27.77734375 l 1
 305.22265625 55.5556640625 l 1
 249.666992188 55.5556640625 l 1
 194.111328125 55.5556640625 l 1
 194.111328125 27.77734375 l 1
 194.111328125 0 l 1
 166.333984375 0 l 1
 138.556640625 0 l 1
 138.556640625 27.77734375 l 1
 138.556640625 55.5556640625 l 1
 110.778320312 55.5556640625 l 1
 83 55.5556640625 l 1
 83 277.77734375 l 1
EndSplineSet
EndChar

StartChar: X
Encoding: 88 88 43
Width: 499
VWidth: 600
Flags: HW
LayerCount: 2
Back
Fore
SplineSet
83 444.444335938 m 1
 83 500 l 1
 110.778320312 500 l 1
 138.556640625 500 l 1
 138.556640625 444.444335938 l 1
 138.556640625 388.888671875 l 1
 166.333984375 388.888671875 l 1
 194.111328125 388.888671875 l 1
 194.111328125 333.333984375 l 1
 194.111328125 277.77734375 l 1
 249.666992188 277.77734375 l 1
 305.22265625 277.77734375 l 1
 305.22265625 333.333984375 l 1
 305.22265625 388.888671875 l 1
 333 388.888671875 l 1
 360.778320312 388.888671875 l 1
 360.778320312 444.444335938 l 1
 360.778320312 500 l 1
 388.556640625 500 l 1
 416.333984375 500 l 1
 416.333984375 444.444335938 l 1
 416.333984375 388.888671875 l 1
 388.556640625 388.888671875 l 1
 360.778320312 388.888671875 l 1
 360.778320312 333.333984375 l 1
 360.778320312 277.77734375 l 1
 333 277.77734375 l 1
 305.22265625 277.77734375 l 1
 305.22265625 250 l 1
 305.22265625 222.22265625 l 1
 333 222.22265625 l 1
 360.778320312 222.22265625 l 1
 360.778320312 166.666015625 l 1
 360.778320312 111.111328125 l 1
 388.556640625 111.111328125 l 1
 416.333984375 111.111328125 l 1
 416.333984375 55.5556640625 l 1
 416.333984375 0 l 1
 388.556640625 0 l 1
 360.778320312 0 l 1
 360.778320312 55.5556640625 l 1
 360.778320312 111.111328125 l 1
 333 111.111328125 l 1
 305.22265625 111.111328125 l 1
 305.22265625 166.666015625 l 1
 305.22265625 222.22265625 l 1
 249.666992188 222.22265625 l 1
 194.111328125 222.22265625 l 1
 194.111328125 166.666015625 l 1
 194.111328125 111.111328125 l 1
 166.333984375 111.111328125 l 1
 138.556640625 111.111328125 l 1
 138.556640625 55.5556640625 l 1
 138.556640625 0 l 1
 110.778320312 0 l 1
 83 0 l 1
 83 55.5556640625 l 1
 83 111.111328125 l 1
 110.778320312 111.111328125 l 1
 138.556640625 111.111328125 l 1
 138.556640625 166.666015625 l 1
 138.556640625 222.22265625 l 1
 166.333984375 222.22265625 l 1
 194.111328125 222.22265625 l 1
 194.111328125 250 l 1
 194.111328125 277.77734375 l 1
 166.333984375 277.77734375 l 1
 138.556640625 277.77734375 l 1
 138.556640625 333.333984375 l 1
 138.556640625 388.888671875 l 1
 110.778320312 388.888671875 l 1
 83 388.888671875 l 1
 83 444.444335938 l 1
EndSplineSet
EndChar

StartChar: Y
Encoding: 89 89 44
Width: 500
VWidth: 600
Flags: HW
LayerCount: 2
Back
Fore
SplineSet
111 444.444335938 m 1
 111 500 l 1
 138.778320312 500 l 1
 166.555664062 500 l 1
 166.555664062 444.444335938 l 1
 166.555664062 388.888671875 l 1
 194.333007812 388.888671875 l 1
 222.110351562 388.888671875 l 1
 222.110351562 333.333984375 l 1
 222.110351562 277.77734375 l 1
 249.888671875 277.77734375 l 1
 277.666992188 277.77734375 l 1
 277.666992188 333.333984375 l 1
 277.666992188 388.888671875 l 1
 305.444335938 388.888671875 l 1
 333.221679688 388.888671875 l 1
 333.221679688 444.444335938 l 1
 333.221679688 500 l 1
 361 500 l 1
 388.778320312 500 l 1
 388.778320312 444.444335938 l 1
 388.778320312 388.888671875 l 1
 361 388.888671875 l 1
 333.221679688 388.888671875 l 1
 333.221679688 333.333984375 l 1
 333.221679688 277.77734375 l 1
 305.444335938 277.77734375 l 1
 277.666992188 277.77734375 l 1
 277.666992188 138.888671875 l 1
 277.666992188 0 l 1
 249.888671875 0 l 1
 222.110351562 0 l 1
 222.110351562 138.888671875 l 1
 222.110351562 277.77734375 l 1
 194.333007812 277.77734375 l 1
 166.555664062 277.77734375 l 1
 166.555664062 333.333984375 l 1
 166.555664062 388.888671875 l 1
 138.778320312 388.888671875 l 1
 111 388.888671875 l 1
 111 444.444335938 l 1
EndSplineSet
EndChar

StartChar: Z
Encoding: 90 90 45
Width: 499
VWidth: 600
Flags: HW
LayerCount: 2
Back
Fore
SplineSet
83 472.22265625 m 1
 83 500 l 1
 249.666992188 500 l 1
 416.333984375 500 l 1
 416.333984375 416.666015625 l 1
 416.333984375 333.333984375 l 1
 388.556640625 333.333984375 l 1
 360.778320312 333.333984375 l 1
 360.778320312 305.555664062 l 1
 360.778320312 277.77734375 l 1
 333 277.77734375 l 1
 305.22265625 277.77734375 l 1
 305.22265625 250 l 1
 305.22265625 222.22265625 l 1
 277.4453125 222.22265625 l 1
 249.666992188 222.22265625 l 1
 249.666992188 194.444335938 l 1
 249.666992188 166.666015625 l 1
 221.888671875 166.666015625 l 1
 194.111328125 166.666015625 l 1
 194.111328125 138.888671875 l 1
 194.111328125 111.111328125 l 1
 166.333984375 111.111328125 l 1
 138.556640625 111.111328125 l 1
 138.556640625 83.333984375 l 1
 138.556640625 55.5556640625 l 1
 277.4453125 55.5556640625 l 1
 416.333984375 55.5556640625 l 1
 416.333984375 27.77734375 l 1
 416.333984375 0 l 1
 249.666992188 0 l 1
 83 0 l 1
 83 83.333984375 l 1
 83 166.666015625 l 1
 110.778320312 166.666015625 l 1
 138.556640625 166.666015625 l 1
 138.556640625 194.444335938 l 1
 138.556640625 222.22265625 l 1
 166.333984375 222.22265625 l 1
 194.111328125 222.22265625 l 1
 194.111328125 250 l 1
 194.111328125 277.77734375 l 1
 221.888671875 277.77734375 l 1
 249.666992188 277.77734375 l 1
 249.666992188 305.555664062 l 1
 249.666992188 333.333984375 l 1
 277.4453125 333.333984375 l 1
 305.22265625 333.333984375 l 1
 305.22265625 361.111328125 l 1
 305.22265625 388.888671875 l 1
 333 388.888671875 l 1
 360.778320312 388.888671875 l 1
 360.778320312 416.666015625 l 1
 360.778320312 444.444335938 l 1
 221.888671875 444.444335938 l 1
 83 444.444335938 l 1
 83 472.22265625 l 1
EndSplineSet
EndChar

StartChar: zero
Encoding: 48 48 46
Width: 499
VWidth: 600
Flags: HW
LayerCount: 2
Back
Fore
SplineSet
249.666992188 250 m 1
 249.666992188 277.77734375 l 1
 277.4453125 277.77734375 l 1
 305.22265625 277.77734375 l 1
 305.22265625 250 l 1
 305.22265625 222.22265625 l 1
 277.4453125 222.22265625 l 1
 249.666992188 222.22265625 l 1
 249.666992188 194.444335938 l 1
 249.666992188 166.666015625 l 1
 221.888671875 166.666015625 l 1
 194.111328125 166.666015625 l 1
 194.111328125 194.444335938 l 1
 194.111328125 222.22265625 l 1
 221.888671875 222.22265625 l 1
 249.666992188 222.22265625 l 1
 249.666992188 250 l 1
138.556640625 472.22265625 m 1
 138.556640625 500 l 1
 249.666992188 500 l 1
 360.778320312 500 l 1
 360.778320312 472.22265625 l 1
 360.778320312 444.444335938 l 1
 388.556640625 444.444335938 l 1
 416.333984375 444.444335938 l 1
 416.333984375 250 l 1
 416.333984375 55.5556640625 l 1
 388.556640625 55.5556640625 l 1
 360.778320312 55.5556640625 l 1
 360.778320312 27.77734375 l 1
 360.778320312 0 l 1
 249.666992188 0 l 1
 138.556640625 0 l 1
 138.556640625 27.77734375 l 1
 138.556640625 55.5556640625 l 1
 110.778320312 55.5556640625 l 1
 83 55.5556640625 l 1
 83 250 l 1
 83 444.444335938 l 1
 110.778320312 444.444335938 l 1
 138.556640625 444.444335938 l 1
 138.556640625 472.22265625 l 1
305.22265625 416.666015625 m 1
 305.22265625 444.444335938 l 1
 249.666992188 444.444335938 l 1
 194.111328125 444.444335938 l 1
 194.111328125 416.666015625 l 1
 194.111328125 388.888671875 l 1
 166.333984375 388.888671875 l 1
 138.556640625 388.888671875 l 1
 138.556640625 277.77734375 l 1
 138.556640625 166.666015625 l 1
 166.333984375 166.666015625 l 1
 194.111328125 166.666015625 l 1
 194.111328125 111.111328125 l 1
 194.111328125 55.5556640625 l 1
 249.666992188 55.5556640625 l 1
 305.22265625 55.5556640625 l 1
 305.22265625 83.333984375 l 1
 305.22265625 111.111328125 l 1
 333 111.111328125 l 1
 360.778320312 111.111328125 l 1
 360.778320312 194.444335938 l 1
 360.778320312 277.77734375 l 1
 333 277.77734375 l 1
 305.22265625 277.77734375 l 1
 305.22265625 305.555664062 l 1
 305.22265625 333.333984375 l 1
 333 333.333984375 l 1
 360.778320312 333.333984375 l 1
 360.778320312 361.111328125 l 1
 360.778320312 388.888671875 l 1
 333 388.888671875 l 1
 305.22265625 388.888671875 l 1
 305.22265625 416.666015625 l 1
EndSplineSet
EndChar

StartChar: one
Encoding: 49 49 47
Width: 499
VWidth: 600
Flags: HW
LayerCount: 2
Back
Fore
SplineSet
249.110351562 472.22265625 m 1
 249.110351562 500 l 1
 276.888671875 500 l 1
 304.666015625 500 l 1
 304.666015625 277.77734375 l 1
 304.666015625 55.5556640625 l 1
 332.443359375 55.5556640625 l 1
 360.221679688 55.5556640625 l 1
 360.221679688 27.77734375 l 1
 360.221679688 0 l 1
 276.888671875 0 l 1
 193.5546875 0 l 1
 193.5546875 27.77734375 l 1
 193.5546875 55.5556640625 l 1
 221.33203125 55.5556640625 l 1
 249.110351562 55.5556640625 l 1
 249.110351562 194.444335938 l 1
 249.110351562 333.333984375 l 1
 193.5546875 333.333984375 l 1
 138 333.333984375 l 1
 138 361.111328125 l 1
 138 388.888671875 l 1
 165.77734375 388.888671875 l 1
 193.5546875 388.888671875 l 1
 193.5546875 416.666015625 l 1
 193.5546875 444.444335938 l 1
 221.33203125 444.444335938 l 1
 249.110351562 444.444335938 l 1
 249.110351562 472.22265625 l 1
EndSplineSet
EndChar

StartChar: two
Encoding: 50 50 48
Width: 499
VWidth: 600
Flags: HW
LayerCount: 2
Back
Fore
SplineSet
138.556640625 472.22265625 m 1
 138.556640625 500 l 1
 249.666992188 500 l 1
 360.778320312 500 l 1
 360.778320312 472.22265625 l 1
 360.778320312 444.444335938 l 1
 388.556640625 444.444335938 l 1
 416.333984375 444.444335938 l 1
 416.333984375 361.111328125 l 1
 416.333984375 277.77734375 l 1
 388.556640625 277.77734375 l 1
 360.778320312 277.77734375 l 1
 360.778320312 250 l 1
 360.778320312 222.22265625 l 1
 333 222.22265625 l 1
 305.22265625 222.22265625 l 1
 305.22265625 194.444335938 l 1
 305.22265625 166.666015625 l 1
 277.4453125 166.666015625 l 1
 249.666992188 166.666015625 l 1
 249.666992188 138.888671875 l 1
 249.666992188 111.111328125 l 1
 221.888671875 111.111328125 l 1
 194.111328125 111.111328125 l 1
 194.111328125 83.333984375 l 1
 194.111328125 55.5556640625 l 1
 305.22265625 55.5556640625 l 1
 416.333984375 55.5556640625 l 1
 416.333984375 27.77734375 l 1
 416.333984375 0 l 1
 249.666992188 0 l 1
 83 0 l 1
 83 55.5556640625 l 1
 83 111.111328125 l 1
 110.778320312 111.111328125 l 1
 138.556640625 111.111328125 l 1
 138.556640625 138.888671875 l 1
 138.556640625 166.666015625 l 1
 166.333984375 166.666015625 l 1
 194.111328125 166.666015625 l 1
 194.111328125 194.444335938 l 1
 194.111328125 222.22265625 l 1
 221.888671875 222.22265625 l 1
 249.666992188 222.22265625 l 1
 249.666992188 250 l 1
 249.666992188 277.77734375 l 1
 277.4453125 277.77734375 l 1
 305.22265625 277.77734375 l 1
 305.22265625 305.555664062 l 1
 305.22265625 333.333984375 l 1
 333 333.333984375 l 1
 360.778320312 333.333984375 l 1
 360.778320312 361.111328125 l 1
 360.778320312 388.888671875 l 1
 333 388.888671875 l 1
 305.22265625 388.888671875 l 1
 305.22265625 416.666015625 l 1
 305.22265625 444.444335938 l 1
 249.666992188 444.444335938 l 1
 194.111328125 444.444335938 l 1
 194.111328125 416.666015625 l 1
 194.111328125 388.888671875 l 1
 138.556640625 388.888671875 l 1
 83 388.888671875 l 1
 83 416.666015625 l 1
 83 444.444335938 l 1
 110.778320312 444.444335938 l 1
 138.556640625 444.444335938 l 1
 138.556640625 472.22265625 l 1
EndSplineSet
EndChar

StartChar: three
Encoding: 51 51 49
Width: 499
VWidth: 600
Flags: HW
LayerCount: 2
Back
Fore
SplineSet
138.556640625 472.22265625 m 1
 138.556640625 500 l 1
 249.666992188 500 l 1
 360.778320312 500 l 1
 360.778320312 472.22265625 l 1
 360.778320312 444.444335938 l 1
 388.556640625 444.444335938 l 1
 416.333984375 444.444335938 l 1
 416.333984375 361.111328125 l 1
 416.333984375 277.77734375 l 1
 388.556640625 277.77734375 l 1
 360.778320312 277.77734375 l 1
 360.778320312 250 l 1
 360.778320312 222.22265625 l 1
 388.556640625 222.22265625 l 1
 416.333984375 222.22265625 l 1
 416.333984375 138.888671875 l 1
 416.333984375 55.5556640625 l 1
 388.556640625 55.5556640625 l 1
 360.778320312 55.5556640625 l 1
 360.778320312 27.77734375 l 1
 360.778320312 0 l 1
 249.666992188 0 l 1
 138.556640625 0 l 1
 138.556640625 27.77734375 l 1
 138.556640625 55.5556640625 l 1
 110.778320312 55.5556640625 l 1
 83 55.5556640625 l 1
 83 83.333984375 l 1
 83 111.111328125 l 1
 138.556640625 111.111328125 l 1
 194.111328125 111.111328125 l 1
 194.111328125 83.333984375 l 1
 194.111328125 55.5556640625 l 1
 249.666992188 55.5556640625 l 1
 305.22265625 55.5556640625 l 1
 305.22265625 83.333984375 l 1
 305.22265625 111.111328125 l 1
 333 111.111328125 l 1
 360.778320312 111.111328125 l 1
 360.778320312 138.888671875 l 1
 360.778320312 166.666015625 l 1
 333 166.666015625 l 1
 305.22265625 166.666015625 l 1
 305.22265625 194.444335938 l 1
 305.22265625 222.22265625 l 1
 249.666992188 222.22265625 l 1
 194.111328125 222.22265625 l 1
 194.111328125 250 l 1
 194.111328125 277.77734375 l 1
 249.666992188 277.77734375 l 1
 305.22265625 277.77734375 l 1
 305.22265625 305.555664062 l 1
 305.22265625 333.333984375 l 1
 333 333.333984375 l 1
 360.778320312 333.333984375 l 1
 360.778320312 361.111328125 l 1
 360.778320312 388.888671875 l 1
 333 388.888671875 l 1
 305.22265625 388.888671875 l 1
 305.22265625 416.666015625 l 1
 305.22265625 444.444335938 l 1
 249.666992188 444.444335938 l 1
 194.111328125 444.444335938 l 1
 194.111328125 416.666015625 l 1
 194.111328125 388.888671875 l 1
 138.556640625 388.888671875 l 1
 83 388.888671875 l 1
 83 416.666015625 l 1
 83 444.444335938 l 1
 110.778320312 444.444335938 l 1
 138.556640625 444.444335938 l 1
 138.556640625 472.22265625 l 1
EndSplineSet
EndChar

StartChar: four
Encoding: 52 52 50
Width: 499
VWidth: 600
Flags: HW
LayerCount: 2
Back
Fore
SplineSet
194.111328125 444.444335938 m 1
 194.111328125 500 l 1
 221.888671875 500 l 1
 249.666992188 500 l 1
 249.666992188 444.444335938 l 1
 249.666992188 388.888671875 l 1
 221.888671875 388.888671875 l 1
 194.111328125 388.888671875 l 1
 194.111328125 333.333984375 l 1
 194.111328125 277.77734375 l 1
 166.333984375 277.77734375 l 1
 138.556640625 277.77734375 l 1
 138.556640625 250 l 1
 138.556640625 222.22265625 l 1
 221.888671875 222.22265625 l 1
 305.22265625 222.22265625 l 1
 305.22265625 361.111328125 l 1
 305.22265625 500 l 1
 333 500 l 1
 360.778320312 500 l 1
 360.778320312 361.111328125 l 1
 360.778320312 222.22265625 l 1
 388.556640625 222.22265625 l 1
 416.333984375 222.22265625 l 1
 416.333984375 194.444335938 l 1
 416.333984375 166.666015625 l 1
 388.556640625 166.666015625 l 1
 360.778320312 166.666015625 l 1
 360.778320312 83.333984375 l 1
 360.778320312 0 l 1
 333 0 l 1
 305.22265625 0 l 1
 305.22265625 83.333984375 l 1
 305.22265625 166.666015625 l 1
 194.111328125 166.666015625 l 1
 83 166.666015625 l 1
 83 222.22265625 l 1
 83 277.77734375 l 1
 110.778320312 277.77734375 l 1
 138.556640625 277.77734375 l 1
 138.556640625 333.333984375 l 1
 138.556640625 388.888671875 l 1
 166.333984375 388.888671875 l 1
 194.111328125 388.888671875 l 1
 194.111328125 444.444335938 l 1
EndSplineSet
EndChar

StartChar: five
Encoding: 53 53 51
Width: 499
VWidth: 600
Flags: HW
LayerCount: 2
Back
Fore
SplineSet
83 333.333984375 m 1
 83 500 l 1
 249.666992188 500 l 1
 416.333984375 500 l 1
 416.333984375 472.22265625 l 1
 416.333984375 444.444335938 l 1
 277.4453125 444.444335938 l 1
 138.556640625 444.444335938 l 1
 138.556640625 388.888671875 l 1
 138.556640625 333.333984375 l 1
 249.666992188 333.333984375 l 1
 360.778320312 333.333984375 l 1
 360.778320312 305.555664062 l 1
 360.778320312 277.77734375 l 1
 388.556640625 277.77734375 l 1
 416.333984375 277.77734375 l 1
 416.333984375 166.666015625 l 1
 416.333984375 55.5556640625 l 1
 388.556640625 55.5556640625 l 1
 360.778320312 55.5556640625 l 1
 360.778320312 27.77734375 l 1
 360.778320312 0 l 1
 249.666992188 0 l 1
 138.556640625 0 l 1
 138.556640625 27.77734375 l 1
 138.556640625 55.5556640625 l 1
 110.778320312 55.5556640625 l 1
 83 55.5556640625 l 1
 83 83.333984375 l 1
 83 111.111328125 l 1
 138.556640625 111.111328125 l 1
 194.111328125 111.111328125 l 1
 194.111328125 83.333984375 l 1
 194.111328125 55.5556640625 l 1
 249.666992188 55.5556640625 l 1
 305.22265625 55.5556640625 l 1
 305.22265625 83.333984375 l 1
 305.22265625 111.111328125 l 1
 333 111.111328125 l 1
 360.778320312 111.111328125 l 1
 360.778320312 166.666015625 l 1
 360.778320312 222.22265625 l 1
 333 222.22265625 l 1
 305.22265625 222.22265625 l 1
 305.22265625 250 l 1
 305.22265625 277.77734375 l 1
 249.666992188 277.77734375 l 1
 194.111328125 277.77734375 l 1
 194.111328125 250 l 1
 194.111328125 222.22265625 l 1
 166.333984375 222.22265625 l 1
 138.556640625 222.22265625 l 1
 138.556640625 194.444335938 l 1
 138.556640625 166.666015625 l 1
 110.778320312 166.666015625 l 1
 83 166.666015625 l 1
 83 333.333984375 l 1
EndSplineSet
EndChar

StartChar: six
Encoding: 54 54 52
Width: 499
VWidth: 600
Flags: HW
LayerCount: 2
Back
Fore
SplineSet
138.556640625 472.22265625 m 1
 138.556640625 500 l 1
 249.666992188 500 l 1
 360.778320312 500 l 1
 360.778320312 472.22265625 l 1
 360.778320312 444.444335938 l 1
 388.556640625 444.444335938 l 1
 416.333984375 444.444335938 l 1
 416.333984375 416.666015625 l 1
 416.333984375 388.888671875 l 1
 360.778320312 388.888671875 l 1
 305.22265625 388.888671875 l 1
 305.22265625 416.666015625 l 1
 305.22265625 444.444335938 l 1
 249.666992188 444.444335938 l 1
 194.111328125 444.444335938 l 1
 194.111328125 416.666015625 l 1
 194.111328125 388.888671875 l 1
 166.333984375 388.888671875 l 1
 138.556640625 388.888671875 l 1
 138.556640625 333.333984375 l 1
 138.556640625 277.77734375 l 1
 249.666992188 277.77734375 l 1
 360.778320312 277.77734375 l 1
 360.778320312 250 l 1
 360.778320312 222.22265625 l 1
 388.556640625 222.22265625 l 1
 416.333984375 222.22265625 l 1
 416.333984375 138.888671875 l 1
 416.333984375 55.5556640625 l 1
 388.556640625 55.5556640625 l 1
 360.778320312 55.5556640625 l 1
 360.778320312 27.77734375 l 1
 360.778320312 0 l 1
 249.666992188 0 l 1
 138.556640625 0 l 1
 138.556640625 27.77734375 l 1
 138.556640625 55.5556640625 l 1
 110.778320312 55.5556640625 l 1
 83 55.5556640625 l 1
 83 250 l 1
 83 444.444335938 l 1
 110.778320312 444.444335938 l 1
 138.556640625 444.444335938 l 1
 138.556640625 472.22265625 l 1
305.22265625 194.444335938 m 1
 305.22265625 222.22265625 l 1
 249.666992188 222.22265625 l 1
 194.111328125 222.22265625 l 1
 194.111328125 194.444335938 l 1
 194.111328125 166.666015625 l 1
 166.333984375 166.666015625 l 1
 138.556640625 166.666015625 l 1
 138.556640625 138.888671875 l 1
 138.556640625 111.111328125 l 1
 166.333984375 111.111328125 l 1
 194.111328125 111.111328125 l 1
 194.111328125 83.333984375 l 1
 194.111328125 55.5556640625 l 1
 249.666992188 55.5556640625 l 1
 305.22265625 55.5556640625 l 1
 305.22265625 83.333984375 l 1
 305.22265625 111.111328125 l 1
 333 111.111328125 l 1
 360.778320312 111.111328125 l 1
 360.778320312 138.888671875 l 1
 360.778320312 166.666015625 l 1
 333 166.666015625 l 1
 305.22265625 166.666015625 l 1
 305.22265625 194.444335938 l 1
EndSplineSet
EndChar

StartChar: seven
Encoding: 55 55 53
Width: 499
VWidth: 600
Flags: HW
LayerCount: 2
Back
Fore
SplineSet
83 472.22265625 m 1
 83 500 l 1
 249.666992188 500 l 1
 416.333984375 500 l 1
 416.333984375 388.888671875 l 1
 416.333984375 277.77734375 l 1
 388.556640625 277.77734375 l 1
 360.778320312 277.77734375 l 1
 360.778320312 250 l 1
 360.778320312 222.22265625 l 1
 333 222.22265625 l 1
 305.22265625 222.22265625 l 1
 305.22265625 194.444335938 l 1
 305.22265625 166.666015625 l 1
 277.4453125 166.666015625 l 1
 249.666992188 166.666015625 l 1
 249.666992188 83.333984375 l 1
 249.666992188 0 l 1
 221.888671875 0 l 1
 194.111328125 0 l 1
 194.111328125 111.111328125 l 1
 194.111328125 222.22265625 l 1
 221.888671875 222.22265625 l 1
 249.666992188 222.22265625 l 1
 249.666992188 250 l 1
 249.666992188 277.77734375 l 1
 277.4453125 277.77734375 l 1
 305.22265625 277.77734375 l 1
 305.22265625 305.555664062 l 1
 305.22265625 333.333984375 l 1
 333 333.333984375 l 1
 360.778320312 333.333984375 l 1
 360.778320312 388.888671875 l 1
 360.778320312 444.444335938 l 1
 221.888671875 444.444335938 l 1
 83 444.444335938 l 1
 83 472.22265625 l 1
EndSplineSet
EndChar

StartChar: eight
Encoding: 56 56 54
Width: 499
VWidth: 600
Flags: HW
LayerCount: 2
Back
Fore
SplineSet
138.556640625 472.22265625 m 1
 138.556640625 500 l 1
 249.666992188 500 l 1
 360.778320312 500 l 1
 360.778320312 472.22265625 l 1
 360.778320312 444.444335938 l 1
 388.556640625 444.444335938 l 1
 416.333984375 444.444335938 l 1
 416.333984375 361.111328125 l 1
 416.333984375 277.77734375 l 1
 388.556640625 277.77734375 l 1
 360.778320312 277.77734375 l 1
 360.778320312 250 l 1
 360.778320312 222.22265625 l 1
 388.556640625 222.22265625 l 1
 416.333984375 222.22265625 l 1
 416.333984375 138.888671875 l 1
 416.333984375 55.5556640625 l 1
 388.556640625 55.5556640625 l 1
 360.778320312 55.5556640625 l 1
 360.778320312 27.77734375 l 1
 360.778320312 0 l 1
 249.666992188 0 l 1
 138.556640625 0 l 1
 138.556640625 27.77734375 l 1
 138.556640625 55.5556640625 l 1
 110.778320312 55.5556640625 l 1
 83 55.5556640625 l 1
 83 138.888671875 l 1
 83 222.22265625 l 1
 110.778320312 222.22265625 l 1
 138.556640625 222.22265625 l 1
 138.556640625 250 l 1
 138.556640625 277.77734375 l 1
 110.778320312 277.77734375 l 1
 83 277.77734375 l 1
 83 361.111328125 l 1
 83 444.444335938 l 1
 110.778320312 444.444335938 l 1
 138.556640625 444.444335938 l 1
 138.556640625 472.22265625 l 1
305.22265625 416.666015625 m 1
 305.22265625 444.444335938 l 1
 249.666992188 444.444335938 l 1
 194.111328125 444.444335938 l 1
 194.111328125 416.666015625 l 1
 194.111328125 388.888671875 l 1
 166.333984375 388.888671875 l 1
 138.556640625 388.888671875 l 1
 138.556640625 361.111328125 l 1
 138.556640625 333.333984375 l 1
 166.333984375 333.333984375 l 1
 194.111328125 333.333984375 l 1
 194.111328125 305.555664062 l 1
 194.111328125 277.77734375 l 1
 249.666992188 277.77734375 l 1
 305.22265625 277.77734375 l 1
 305.22265625 305.555664062 l 1
 305.22265625 333.333984375 l 1
 333 333.333984375 l 1
 360.778320312 333.333984375 l 1
 360.778320312 361.111328125 l 1
 360.778320312 388.888671875 l 1
 333 388.888671875 l 1
 305.22265625 388.888671875 l 1
 305.22265625 416.666015625 l 1
305.22265625 194.444335938 m 1
 305.22265625 222.22265625 l 1
 249.666992188 222.22265625 l 1
 194.111328125 222.22265625 l 1
 194.111328125 194.444335938 l 1
 194.111328125 166.666015625 l 1
 166.333984375 166.666015625 l 1
 138.556640625 166.666015625 l 1
 138.556640625 138.888671875 l 1
 138.556640625 111.111328125 l 1
 166.333984375 111.111328125 l 1
 194.111328125 111.111328125 l 1
 194.111328125 83.333984375 l 1
 194.111328125 55.5556640625 l 1
 249.666992188 55.5556640625 l 1
 305.22265625 55.5556640625 l 1
 305.22265625 83.333984375 l 1
 305.22265625 111.111328125 l 1
 333 111.111328125 l 1
 360.778320312 111.111328125 l 1
 360.778320312 138.888671875 l 1
 360.778320312 166.666015625 l 1
 333 166.666015625 l 1
 305.22265625 166.666015625 l 1
 305.22265625 194.444335938 l 1
EndSplineSet
EndChar

StartChar: nine
Encoding: 57 57 55
Width: 499
VWidth: 600
Flags: HW
LayerCount: 2
Back
Fore
SplineSet
138.556640625 472.22265625 m 1
 138.556640625 500 l 1
 249.666992188 500 l 1
 360.778320312 500 l 1
 360.778320312 472.22265625 l 1
 360.778320312 444.444335938 l 1
 388.556640625 444.444335938 l 1
 416.333984375 444.444335938 l 1
 416.333984375 250 l 1
 416.333984375 55.5556640625 l 1
 388.556640625 55.5556640625 l 1
 360.778320312 55.5556640625 l 1
 360.778320312 27.77734375 l 1
 360.778320312 0 l 1
 249.666992188 0 l 1
 138.556640625 0 l 1
 138.556640625 27.77734375 l 1
 138.556640625 55.5556640625 l 1
 110.778320312 55.5556640625 l 1
 83 55.5556640625 l 1
 83 83.333984375 l 1
 83 111.111328125 l 1
 138.556640625 111.111328125 l 1
 194.111328125 111.111328125 l 1
 194.111328125 83.333984375 l 1
 194.111328125 55.5556640625 l 1
 249.666992188 55.5556640625 l 1
 305.22265625 55.5556640625 l 1
 305.22265625 83.333984375 l 1
 305.22265625 111.111328125 l 1
 333 111.111328125 l 1
 360.778320312 111.111328125 l 1
 360.778320312 166.666015625 l 1
 360.778320312 222.22265625 l 1
 249.666992188 222.22265625 l 1
 138.556640625 222.22265625 l 1
 138.556640625 250 l 1
 138.556640625 277.77734375 l 1
 110.778320312 277.77734375 l 1
 83 277.77734375 l 1
 83 361.111328125 l 1
 83 444.444335938 l 1
 110.778320312 444.444335938 l 1
 138.556640625 444.444335938 l 1
 138.556640625 472.22265625 l 1
305.22265625 416.666015625 m 1
 305.22265625 444.444335938 l 1
 249.666992188 444.444335938 l 1
 194.111328125 444.444335938 l 1
 194.111328125 416.666015625 l 1
 194.111328125 388.888671875 l 1
 166.333984375 388.888671875 l 1
 138.556640625 388.888671875 l 1
 138.556640625 361.111328125 l 1
 138.556640625 333.333984375 l 1
 166.333984375 333.333984375 l 1
 194.111328125 333.333984375 l 1
 194.111328125 305.555664062 l 1
 194.111328125 277.77734375 l 1
 249.666992188 277.77734375 l 1
 305.22265625 277.77734375 l 1
 305.22265625 305.555664062 l 1
 305.22265625 333.333984375 l 1
 333 333.333984375 l 1
 360.778320312 333.333984375 l 1
 360.778320312 361.111328125 l 1
 360.778320312 388.888671875 l 1
 333 388.888671875 l 1
 305.22265625 388.888671875 l 1
 305.22265625 416.666015625 l 1
EndSplineSet
EndChar
